<svg xmlns="http://www.w3.org/2000/svg" version="1.1" viewBox='0 0 512 512' style="shape-rendering:geometricPrecision; text-rendering:geometricPrecision; image-rendering:optimizeQuality; fill-rule:evenodd; clip-rule:evenodd" xmlns:xlink="http://www.w3.org/1999/xlink">
<g><path style="opacity:0.938" fill="#000000" d="M 247.5,-0.5 C 252.833,-0.5 258.167,-0.5 263.5,-0.5C 268.518,1.17822 273.185,3.67822 277.5,7C 298.861,28.6952 320.528,50.0285 342.5,71C 366.833,71.3333 391.167,71.6667 415.5,72C 431.667,74.8333 441.167,84.3333 444,100.5C 444.667,108.5 444.667,116.5 444,124.5C 440.006,131.663 435.006,132.33 429,126.5C 428.887,117.107 428.22,107.774 427,98.5C 424.293,92.7261 419.793,89.2261 413.5,88C 306.79,87.0086 200.124,87.3419 93.5,89C 87.7261,91.7071 84.2261,96.2071 83,102.5C 82.3333,146.167 82.3333,189.833 83,233.5C 128.333,278.833 173.667,324.167 219,369.5C 226.419,365.207 233.919,361.04 241.5,357C 250.115,353.326 258.782,352.992 267.5,356C 275.747,360.373 283.914,364.873 292,369.5C 337.333,324.167 382.667,278.833 428,233.5C 428.333,205.833 428.667,178.167 429,150.5C 435.006,144.67 440.006,145.337 444,152.5C 444.333,158.833 444.667,165.167 445,171.5C 455.667,182.167 466.333,192.833 477,203.5C 480.368,207.935 482.368,212.935 483,218.5C 483.667,307.167 483.667,395.833 483,484.5C 480.2,498.463 472.033,507.463 458.5,511.5C 427.5,511.5 396.5,511.5 365.5,511.5C 360.272,506.656 360.272,501.823 365.5,497C 393.833,496.667 422.167,496.333 450.5,496C 458.846,495.45 464.012,491.283 466,483.5C 399.167,446.667 332.333,409.833 265.5,373C 259.586,369.338 253.586,369.005 247.5,372C 179.476,409.008 111.81,446.508 44.5,484.5C 47.5343,491.518 52.8676,495.352 60.5,496C 154.167,496.333 247.833,496.667 341.5,497C 346.728,501.823 346.728,506.656 341.5,511.5C 245.167,511.5 148.833,511.5 52.5,511.5C 38.9666,507.463 30.7999,498.463 28,484.5C 27.3333,436.167 27.3333,387.833 28,339.5C 30.6022,333.958 34.7689,332.458 40.5,335C 41.7014,335.903 42.5348,337.069 43,338.5C 43.3333,380.833 43.6667,423.167 44,465.5C 97.2937,436.367 150.46,407.034 203.5,377.5C 151.153,324.319 98.3194,271.653 45,219.5C 43.6741,250.355 43.0074,281.355 43,312.5C 37.606,319.321 32.606,318.987 28,311.5C 27.3333,280.5 27.3333,249.5 28,218.5C 28.6317,212.935 30.6317,207.935 34,203.5C 44.6667,192.833 55.3333,182.167 66,171.5C 66.3333,147.833 66.6667,124.167 67,100.5C 69.0902,86.4108 76.9235,77.2442 90.5,73C 116.459,71.7126 142.459,71.0459 168.5,71C 190.472,50.0285 212.139,28.6952 233.5,7C 237.815,3.67822 242.482,1.17822 247.5,-0.5 Z M 250.5,15.5 C 256.866,14.5302 262.533,16.0302 267.5,20C 284.528,37.3622 301.862,54.3622 319.5,71C 276.833,71.6667 234.167,71.6667 191.5,71C 209.472,54.0289 227.138,36.6955 244.5,19C 246.727,18.059 248.727,16.8923 250.5,15.5 Z M 65.5,194.5 C 66.6552,201.655 66.8218,208.988 66,216.5C 62.4662,212.631 58.6328,209.131 54.5,206C 58.3705,202.298 62.0371,198.464 65.5,194.5 Z M 444.5,194.5 C 448.631,198.13 452.631,201.963 456.5,206C 452.367,209.131 448.534,212.631 445,216.5C 444.5,209.174 444.334,201.841 444.5,194.5 Z M 465.5,219.5 C 466.117,219.611 466.617,219.944 467,220.5C 467.667,302.167 467.667,383.833 467,465.5C 413.706,436.367 360.54,407.034 307.5,377.5C 359.881,324.452 412.548,271.785 465.5,219.5 Z"/></g>
<g><path style="opacity:0.932" fill="#000000" d="M 137.5,137.5 C 216.167,137.333 294.834,137.5 373.5,138C 379.042,140.602 380.542,144.769 378,150.5C 377.097,151.701 375.931,152.535 374.5,153C 295.167,153.667 215.833,153.667 136.5,153C 131.701,149.929 130.535,145.762 133,140.5C 134.409,139.219 135.909,138.219 137.5,137.5 Z"/></g>
<g><path style="opacity:0.993" fill="#000000" d="M 135.5,195.5 C 215.501,195.333 295.501,195.5 375.5,196C 380.833,200.667 380.833,205.333 375.5,210C 295.5,210.667 215.5,210.667 135.5,210C 130.232,205.171 130.232,200.337 135.5,195.5 Z"/></g>
<g><path style="opacity:0.932" fill="#000000" d="M 136.5,252.5 C 215.834,252.333 295.167,252.5 374.5,253C 379.299,256.071 380.465,260.238 378,265.5C 377.097,266.701 375.931,267.535 374.5,268C 295.167,268.667 215.833,268.667 136.5,268C 129.914,262.84 129.914,257.673 136.5,252.5 Z"/></g>
</svg>
