<svg xmlns="http://www.w3.org/2000/svg" version="1.1" viewBox='0 0 512 512'  style="shape-rendering:geometricPrecision; text-rendering:geometricPrecision; image-rendering:optimizeQuality; fill-rule:evenodd; clip-rule:evenodd" xmlns:xlink="http://www.w3.org/1999/xlink">
<g><path style="opacity:0.927" fill="#000000" d="M 233.5,-0.5 C 248.5,-0.5 263.5,-0.5 278.5,-0.5C 324.629,4.09863 366.629,19.7653 404.5,46.5C 404.833,46.1667 405.167,45.8333 405.5,45.5C 400.133,35.6021 395.466,25.4354 391.5,15C 392.857,6.9883 397.19,4.82163 404.5,8.5C 416.225,30.9484 427.725,53.6151 439,76.5C 440,85.1635 436.167,88.6635 427.5,87C 403.813,82.441 380.146,77.7743 356.5,73C 351.657,68.6204 351.323,63.9538 355.5,59C 357.137,58.3988 358.803,57.8988 360.5,57.5C 374.194,60.3403 387.861,62.8403 401.5,65C 343.322,21.4912 278.322,6.49117 206.5,20C 123.968,39.8698 65.801,88.7032 32,166.5C 1.36008,251.743 12.6934,330.743 66,403.5C 67.8014,410.236 65.3014,414.236 58.5,415.5C 56.2895,414.877 54.2895,413.877 52.5,412.5C 22.0704,372.55 4.4037,327.55 -0.5,277.5C -0.5,262.833 -0.5,248.167 -0.5,233.5C 11.9842,133.193 63.9842,61.693 155.5,19C 180.684,8.70393 206.684,2.20393 233.5,-0.5 Z"/></g>
<g><path style="opacity:0.925" fill="#000000" d="M 239.5,79.5 C 250.172,79.3335 260.839,79.5002 271.5,80C 279.502,82.0029 285.002,86.8362 288,94.5C 289.135,101.811 290.635,108.977 292.5,116C 305.454,119.396 317.62,124.562 329,131.5C 334.97,126.19 341.47,121.69 348.5,118C 356.254,115.75 363.587,116.75 370.5,121C 377,127.5 383.5,134 390,140.5C 394.906,148.506 395.573,156.839 392,165.5C 387.955,171.09 383.788,176.59 379.5,182C 386.438,193.38 391.604,205.546 395,218.5C 395.5,219 396,219.5 396.5,220C 404.827,220.282 412.827,221.949 420.5,225C 426.067,228.287 429.567,233.121 431,239.5C 431.667,250.167 431.667,260.833 431,271.5C 428.997,279.502 424.164,285.002 416.5,288C 409.907,289.466 403.241,290.466 396.5,291C 393.351,299.105 390.184,307.272 387,315.5C 384.88,320.242 382.38,324.742 379.5,329C 384.81,334.97 389.31,341.47 393,348.5C 395.237,356.234 394.237,363.567 390,370.5C 383.5,377 377,383.5 370.5,390C 362.477,394.91 354.144,395.576 345.5,392C 339.91,387.955 334.41,383.788 329,379.5C 317.62,386.438 305.454,391.604 292.5,395C 290.886,403.607 288.719,412.107 286,420.5C 282.713,426.067 277.879,429.567 271.5,431C 260.833,431.667 250.167,431.667 239.5,431C 231.498,428.997 225.998,424.164 223,416.5C 221.673,409.888 220.673,403.222 220,396.5C 211.895,393.351 203.728,390.184 195.5,387C 190.758,384.88 186.258,382.38 182,379.5C 176.03,384.81 169.53,389.31 162.5,393C 154.766,395.237 147.433,394.237 140.5,390C 134,383.5 127.5,377 121,370.5C 116.094,362.494 115.427,354.161 119,345.5C 123.045,339.91 127.212,334.41 131.5,329C 124.562,317.62 119.396,305.454 116,292.5C 115.5,292 115,291.5 114.5,291C 106.187,290.631 98.1874,288.964 90.5,286C 84.9331,282.713 81.4331,277.879 80,271.5C 79.3333,260.833 79.3333,250.167 80,239.5C 82.0029,231.498 86.8362,225.998 94.5,223C 101.112,221.673 107.778,220.673 114.5,220C 117.649,211.895 120.816,203.728 124,195.5C 126.12,190.758 128.62,186.258 131.5,182C 126.19,176.03 121.69,169.53 118,162.5C 115.75,154.746 116.75,147.413 121,140.5C 127.5,134 134,127.5 140.5,121C 148.506,116.094 156.839,115.427 165.5,119C 171.09,123.045 176.59,127.212 182,131.5C 193.38,124.562 205.546,119.396 218.5,116C 219,115.5 219.5,115 220,114.5C 220.369,106.187 222.036,98.1874 225,90.5C 228.514,85.0034 233.348,81.3367 239.5,79.5 Z M 242.5,95.5 C 251.94,95.0545 261.274,95.5545 270.5,97C 271.701,97.9025 272.535,99.0692 273,100.5C 274.082,108.156 275.082,115.822 276,123.5C 276.346,125.848 277.513,127.681 279.5,129C 296.635,132.934 312.635,139.601 327.5,149C 329.913,149.484 332.246,149.15 334.5,148C 340.884,142.615 347.55,137.615 354.5,133C 356.553,132.675 358.553,133.009 360.5,134C 366,139.5 371.5,145 377,150.5C 379.054,154.029 378.721,157.362 376,160.5C 370.127,166.858 365.293,173.858 361.5,181.5C 365.649,189.797 369.815,198.13 374,206.5C 377.131,214.692 379.797,223.025 382,231.5C 383.319,233.487 385.152,234.654 387.5,235C 395.178,235.918 402.844,236.918 410.5,238C 412.667,238.833 414.167,240.333 415,242.5C 415.945,251.935 415.611,261.268 414,270.5C 413.097,271.701 411.931,272.535 410.5,273C 402.844,274.082 395.178,275.082 387.5,276C 385.152,276.346 383.319,277.513 382,279.5C 378.066,296.635 371.399,312.635 362,327.5C 361.516,329.913 361.85,332.246 363,334.5C 368.385,340.884 373.385,347.55 378,354.5C 378.325,356.553 377.991,358.553 377,360.5C 371.5,366 366,371.5 360.5,377C 356.971,379.054 353.638,378.721 350.5,376C 344.142,370.127 337.142,365.293 329.5,361.5C 321.203,365.649 312.87,369.815 304.5,374C 296.308,377.131 287.975,379.797 279.5,382C 277.513,383.319 276.346,385.152 276,387.5C 275.082,395.178 274.082,402.844 273,410.5C 272.167,412.667 270.667,414.167 268.5,415C 259.065,415.945 249.732,415.611 240.5,414C 239.299,413.097 238.465,411.931 238,410.5C 236.918,402.844 235.918,395.178 235,387.5C 234.654,385.152 233.487,383.319 231.5,382C 214.365,378.066 198.365,371.399 183.5,362C 181.087,361.516 178.754,361.85 176.5,363C 170.116,368.385 163.45,373.385 156.5,378C 154.447,378.325 152.447,377.991 150.5,377C 145,371.5 139.5,366 134,360.5C 131.946,356.971 132.279,353.638 135,350.5C 140.873,344.142 145.707,337.142 149.5,329.5C 145.351,321.203 141.185,312.87 137,304.5C 133.869,296.308 131.203,287.975 129,279.5C 127.681,277.513 125.848,276.346 123.5,276C 115.822,275.082 108.156,274.082 100.5,273C 98.3333,272.167 96.8333,270.667 96,268.5C 95.0553,259.065 95.3886,249.732 97,240.5C 97.9025,239.299 99.0692,238.465 100.5,238C 108.156,236.918 115.822,235.918 123.5,235C 125.848,234.654 127.681,233.487 129,231.5C 132.934,214.365 139.601,198.365 149,183.5C 149.484,181.087 149.15,178.754 148,176.5C 142.615,170.116 137.615,163.45 133,156.5C 132.675,154.447 133.009,152.447 134,150.5C 139.5,145 145,139.5 150.5,134C 154.029,131.946 157.362,132.279 160.5,135C 166.858,140.873 173.858,145.707 181.5,149.5C 189.797,145.351 198.13,141.185 206.5,137C 214.692,133.869 223.025,131.203 231.5,129C 233.487,127.681 234.654,125.848 235,123.5C 235.918,115.822 236.918,108.156 238,100.5C 239.025,98.313 240.525,96.6464 242.5,95.5 Z"/></g>
<g><path style="opacity:0.927" fill="#000000" d="M 511.5,233.5 C 511.5,248.167 511.5,262.833 511.5,277.5C 499.016,377.807 447.016,449.307 355.5,492C 330.316,502.296 304.316,508.796 277.5,511.5C 262.5,511.5 247.5,511.5 232.5,511.5C 186.368,506.901 144.368,491.234 106.5,464.5C 106.167,464.833 105.833,465.167 105.5,465.5C 110.867,475.398 115.534,485.565 119.5,496C 118.057,503.765 113.724,505.932 106.5,502.5C 94.7752,480.052 83.2752,457.385 72,434.5C 70.9995,425.837 74.8329,422.337 83.5,424C 107.194,428.539 130.86,433.205 154.5,438C 159.343,442.38 159.677,447.046 155.5,452C 153.863,452.601 152.197,453.101 150.5,453.5C 136.825,450.664 123.158,448.164 109.5,446C 172.032,492.43 241.365,506.43 317.5,488C 393.884,465.619 447.717,417.786 479,344.5C 505.455,272.514 500.455,202.848 464,135.5C 458.162,125.821 451.828,116.487 445,107.5C 443.199,100.764 445.699,96.764 452.5,95.5C 454.711,96.1228 456.711,97.1228 458.5,98.5C 488.93,138.45 506.596,183.45 511.5,233.5 Z"/></g>
<g><path style="opacity:0.926" fill="#000000" d="M 245.5,175.5 C 264.039,173.969 281.373,177.802 297.5,187C 302.381,191.375 302.715,196.042 298.5,201C 296.966,201.923 295.299,202.423 293.5,202.5C 285.877,198.527 277.877,195.36 269.5,193C 232.469,187.926 207.302,202.759 194,237.5C 190.45,250.602 190.784,263.602 195,276.5C 197.529,282.218 200.029,287.884 202.5,293.5C 201.489,300.666 197.489,303.166 190.5,301C 182.162,290.665 177.329,278.832 176,265.5C 173.35,225.949 189.85,197.782 225.5,181C 232.142,178.581 238.809,176.748 245.5,175.5 Z"/></g>
<g><path style="opacity:0.925" fill="#000000" d="M 312.5,209.5 C 317.223,208.553 321.056,209.886 324,213.5C 341.258,246.356 338.925,277.69 317,307.5C 291.367,334.43 260.867,341.93 225.5,330C 219.749,327.711 214.582,324.545 210,320.5C 208.283,311.884 211.783,308.051 220.5,309C 251.242,326.173 279.075,322.339 304,297.5C 317.439,281.076 322.106,262.409 318,241.5C 315.64,233.123 312.473,225.123 308.5,217.5C 308.782,214.269 310.115,211.602 312.5,209.5 Z"/></g>
</svg>
