<svg xmlns="http://www.w3.org/2000/svg" version="1.1" style="shape-rendering:geometricPrecision; text-rendering:geometricPrecision; image-rendering:optimizeQuality; fill-rule:evenodd; clip-rule:evenodd" xmlns:xlink="http://www.w3.org/1999/xlink">
<g><path style="opacity:0.936" d="M -0.5,200.5 C -0.5,195.167 -0.5,189.833 -0.5,184.5C 8.58681,165.305 22.9201,160.139 42.5,169C 45.3333,171.167 47.8333,173.667 50,176.5C 54.3333,184.5 58.6667,192.5 63,200.5C 63.3333,154.5 63.6667,108.5 64,62.5C 71.0726,43.8504 84.2392,37.5171 103.5,43.5C 107.901,20.2929 121.568,11.7929 144.5,18C 154.774,23.369 160.441,31.869 161.5,43.5C 181.338,37.3722 194.505,44.0389 201,63.5C 201.333,69.1667 201.667,74.8333 202,80.5C 215.743,75.1835 227.409,78.1835 237,89.5C 238.608,92.3821 239.941,95.3821 241,98.5C 242.647,145.788 242.98,193.121 242,240.5C 241.613,250.519 240.946,260.519 240,270.5C 235.906,295.399 232.572,320.399 230,345.5C 229.167,377.172 229.333,408.839 230.5,440.5C 241.031,446.054 245.697,454.887 244.5,467C 245.746,481.209 239.746,490.542 226.5,495C 206.833,495.667 187.167,495.667 167.5,495C 162.776,492.565 161.276,488.731 163,483.5C 164.214,481.951 165.714,480.785 167.5,480C 186.923,479.976 206.256,479.309 225.5,478C 227.889,474.958 228.889,471.458 228.5,467.5C 229.029,462.915 227.695,459.082 224.5,456C 176.559,454.348 128.559,454.015 80.5,455C 77.2328,454.937 75.0661,456.437 74,459.5C 73.3333,464.5 73.3333,469.5 74,474.5C 74.7845,476.286 75.9512,477.786 77.5,479C 97.8333,479.333 118.167,479.667 138.5,480C 143.299,483.071 144.465,487.238 142,492.5C 141.097,493.701 139.931,494.535 138.5,495C 117.5,495.667 96.5,495.667 75.5,495C 61.7361,490.832 55.7361,481.499 57.5,467C 56.2973,456.415 59.964,448.081 68.5,442C 70.0249,440.991 71.6916,440.491 73.5,440.5C 73.6666,421.164 73.5,401.83 73,382.5C 71.4813,367.944 67.148,354.277 60,341.5C 53.7425,330.648 46.7425,320.314 39,310.5C 33.8863,302.607 29.553,294.274 26,285.5C 17.2313,257.034 8.39799,228.701 -0.5,200.5 Z M 129.5,31.5 C 136.005,31.1684 140.838,33.8351 144,39.5C 144.333,100.833 144.667,162.167 145,223.5C 146.695,228.599 150.195,230.432 155.5,229C 157.286,228.215 158.786,227.049 160,225.5C 160.333,172.833 160.667,120.167 161,67.5C 163.415,59.0409 168.915,55.8743 177.5,58C 181.085,59.9158 183.585,62.7491 185,66.5C 185.333,119.167 185.667,171.833 186,224.5C 188.226,228.861 191.726,230.361 196.5,229C 198.667,228.167 200.167,226.667 201,224.5C 201.333,184.167 201.667,143.833 202,103.5C 205.659,94.7526 211.826,92.2526 220.5,96C 223.467,98.1005 225.3,100.934 226,104.5C 226.667,149.833 226.667,195.167 226,240.5C 225.595,252.882 224.595,265.215 223,277.5C 218.879,299.683 215.879,322.016 214,344.5C 213.5,376.165 213.333,407.832 213.5,439.5C 172.167,439.5 130.833,439.5 89.5,439.5C 89.6666,420.164 89.5,400.83 89,381.5C 87.2829,363.682 81.9496,347.015 73,331.5C 66.7425,320.648 59.7425,310.314 52,300.5C 48.4118,294.325 45.0785,287.991 42,281.5C 32.1516,252.29 23.3183,222.79 15.5,193C 15.508,185.325 19.3413,181.158 27,180.5C 31.3218,180.816 34.6551,182.816 37,186.5C 49.2001,210.414 63.0335,233.248 78.5,255C 113.028,260.194 132.861,280.028 138,314.5C 142.665,317.456 146.998,317.122 151,313.5C 151.875,312.127 152.375,310.627 152.5,309C 146.707,271.203 125.04,248.203 87.5,240C 85,236.167 82.5,232.333 80,228.5C 79.3333,174.167 79.3333,119.833 80,65.5C 84.0513,57.6259 90.2179,55.4592 98.5,59C 100.378,60.5429 101.878,62.3762 103,64.5C 104.312,118.13 104.979,171.796 105,225.5C 111.445,231.411 116.445,230.411 120,222.5C 120.333,161.5 120.667,100.5 121,39.5C 123.098,35.8972 125.932,33.2305 129.5,31.5 Z"/></g>
<g><path style="opacity:0.936" d="M 511.5,185.5 C 511.5,190.5 511.5,195.5 511.5,200.5C 503.713,224.956 496.213,249.623 489,274.5C 486.863,280.579 484.529,286.579 482,292.5C 470.333,311.5 458.667,330.5 447,349.5C 441.307,362.639 437.64,376.306 436,390.5C 428.192,394.677 423.359,392.51 421.5,384C 423.553,362.507 430.386,342.674 442,324.5C 452.582,311.232 461.582,296.899 469,281.5C 478.284,253.698 486.951,225.698 495,197.5C 496.714,184.461 491.214,179.295 478.5,182C 477,183.5 475.5,185 474,186.5C 461.8,210.414 447.967,233.248 432.5,255C 397.957,260.209 378.124,280.043 373,314.5C 369.744,316.429 366.244,316.929 362.5,316C 360.129,314.257 358.795,311.923 358.5,309C 364.293,271.203 385.96,248.203 423.5,240C 426,236.167 428.5,232.333 431,228.5C 431.667,174.167 431.667,119.833 431,65.5C 427.628,58.5671 422.128,56.0671 414.5,58C 409.617,60.2643 407.117,64.0976 407,69.5C 406.667,121.5 406.333,173.5 406,225.5C 399.555,231.411 394.555,230.411 391,222.5C 390.993,160.751 390.326,99.0844 389,37.5C 384.17,31.2232 378.337,30.0565 371.5,34C 369.19,35.6374 367.69,37.804 367,40.5C 366.667,101.5 366.333,162.5 366,223.5C 362.006,230.663 357.006,231.33 351,225.5C 350.667,172.833 350.333,120.167 350,67.5C 347.585,59.0409 342.085,55.8743 333.5,58C 329.915,59.9158 327.415,62.7491 326,66.5C 325.667,119.167 325.333,171.833 325,224.5C 322.774,228.861 319.274,230.361 314.5,229C 312.333,228.167 310.833,226.667 310,224.5C 309.667,184.167 309.333,143.833 309,103.5C 303.42,92.4378 296.087,91.1045 287,99.5C 286.138,101.087 285.471,102.754 285,104.5C 284.333,149.833 284.333,195.167 285,240.5C 285.405,252.882 286.405,265.215 288,277.5C 292.121,299.683 295.121,322.016 297,344.5C 297.5,376.165 297.667,407.832 297.5,439.5C 338.833,439.5 380.167,439.5 421.5,439.5C 421.334,432.159 421.5,424.826 422,417.5C 426.63,409.916 431.63,409.582 437,416.5C 437.5,424.493 437.666,432.493 437.5,440.5C 446.262,442.767 451.429,448.433 453,457.5C 454.338,467.129 453.338,476.462 450,485.5C 446.469,490.705 441.636,493.871 435.5,495C 385.167,495.667 334.833,495.667 284.5,495C 271.254,490.542 265.254,481.209 266.5,467C 265.303,454.887 269.969,446.054 280.5,440.5C 281.667,408.839 281.833,377.172 281,345.5C 279.028,323.361 276.028,301.361 272,279.5C 270.458,266.876 269.458,254.21 269,241.5C 268.02,193.788 268.353,146.121 270,98.5C 274.303,85.5374 283.303,78.5374 297,77.5C 301.168,77.9697 305.168,78.9697 309,80.5C 307.6,69.0246 310.267,58.6913 317,49.5C 326.61,41.3288 337.443,39.3288 349.5,43.5C 352.077,26.4209 361.91,17.0876 379,15.5C 396.211,16.8824 405.711,26.2158 407.5,43.5C 426.761,37.5171 439.927,43.8504 447,62.5C 447.333,108.5 447.667,154.5 448,200.5C 452.661,191.174 457.828,182.174 463.5,173.5C 474.412,163.508 486.412,162.008 499.5,169C 505.302,173.286 509.302,178.786 511.5,185.5 Z M 289.5,454.5 C 336.501,454.333 383.501,454.5 430.5,455C 433.767,454.937 435.934,456.437 437,459.5C 437.667,464.5 437.667,469.5 437,474.5C 436.215,476.286 435.049,477.786 433.5,479C 384.833,479.667 336.167,479.667 287.5,479C 286.069,478.535 284.903,477.701 284,476.5C 281.895,470.098 282.062,463.765 284.5,457.5C 286.145,456.304 287.811,455.304 289.5,454.5 Z"/></g>
</svg>
