<svg xmlns="http://www.w3.org/2000/svg" version="1.1" viewBox='0 0 512 512'  style="shape-rendering:geometricPrecision; text-rendering:geometricPrecision; image-rendering:optimizeQuality; fill-rule:evenodd; clip-rule:evenodd" xmlns:xlink="http://www.w3.org/1999/xlink">
<g><path style="opacity:0.932" d="M 511.5,402.5 C 511.5,409.833 511.5,417.167 511.5,424.5C 509.525,428.669 506.191,431.169 501.5,432C 472.438,432.975 443.438,432.642 414.5,431C 411.197,427.205 410.697,423.038 413,418.5C 413.75,417.874 414.584,417.374 415.5,417C 442.498,416.5 469.498,416.333 496.5,416.5C 496.608,412.753 496.108,409.086 495,405.5C 493.786,403.951 492.286,402.785 490.5,402C 333.833,401.333 177.167,401.333 20.5,402C 18.714,402.785 17.214,403.951 16,405.5C 14.8924,409.086 14.3924,412.753 14.5,416.5C 140.834,416.333 267.167,416.5 393.5,417C 398.684,421.708 398.684,426.375 393.5,431C 265.556,432.661 137.556,432.995 9.5,432C 4.80851,431.169 1.47518,428.669 -0.5,424.5C -0.5,417.167 -0.5,409.833 -0.5,402.5C 4.63665,390.252 13.97,384.585 27.5,385.5C 27.0223,343.786 27.5223,302.119 29,260.5C 30.3957,256.208 32.8957,252.708 36.5,250C 65.6836,226.573 94.6836,202.906 123.5,179C 129.226,176.096 133.726,177.262 137,182.5C 137.725,185.377 137.225,188.043 135.5,190.5C 104.513,215.327 74.0127,240.661 44,266.5C 43.5,306.165 43.3333,345.832 43.5,385.5C 78.8333,385.5 114.167,385.5 149.5,385.5C 149.868,373.629 146.535,362.962 139.5,353.5C 114.658,362.511 95.4909,355.511 82,332.5C 76.018,321.054 71.518,309.054 68.5,296.5C 69.192,290.646 72.5253,287.812 78.5,288C 95.0978,285.26 111.431,286.26 127.5,291C 141.113,296.282 149.28,306.115 152,320.5C 152.514,327.872 152.514,335.206 152,342.5C 154.503,345.502 156.503,348.835 158,352.5C 160,349.167 162,345.833 164,342.5C 159.642,310.212 173.475,291.712 205.5,287C 217.928,286.032 230.261,286.698 242.5,289C 246.861,291.226 248.361,294.726 247,299.5C 243.346,314.8 237.013,328.8 228,341.5C 213.713,358.176 196.546,362.176 176.5,353.5C 169.775,363.055 166.442,373.722 166.5,385.5C 226.504,385.833 286.504,385.5 346.5,384.5C 345.692,373.243 342.192,362.909 336,353.5C 319.209,360.959 303.709,358.792 289.5,347C 275.02,331.517 267.186,313.35 266,292.5C 266.5,290.667 267.667,289.5 269.5,289C 286.927,285.364 304.261,285.697 321.5,290C 343.93,299.858 352.597,316.858 347.5,341C 349.786,344.4 351.952,347.9 354,351.5C 356.377,347.912 358.877,344.412 361.5,341C 356.283,309.521 369.616,291.521 401.5,287C 413.928,286.032 426.261,286.698 438.5,289C 441.784,290.396 443.451,292.896 443.5,296.5C 440.161,317.014 431.161,334.514 416.5,349C 402.821,359.024 388.321,360.524 373,353.5C 366.208,363.042 362.708,373.708 362.5,385.5C 397.5,385.5 432.5,385.5 467.5,385.5C 467.988,345.081 467.488,304.748 466,264.5C 397.167,208.333 328.333,152.167 259.5,96C 258.128,95.5983 256.795,95.0983 255.5,94.5C 252.469,95.3665 249.803,96.8665 247.5,99C 217.833,123.333 188.167,147.667 158.5,172C 148.11,175.601 143.943,172.101 146,161.5C 177.557,134.975 209.391,108.808 241.5,83C 252.846,76.5565 263.512,77.5565 273.5,86C 341.908,142.286 410.408,198.453 479,254.5C 481.11,257.492 482.443,260.825 483,264.5C 483.5,304.832 483.667,345.165 483.5,385.5C 497.03,384.585 506.363,390.252 511.5,402.5 Z M 157.5,223.5 C 163.695,230.061 167.362,237.894 168.5,247C 166.425,255.102 161.425,258.102 153.5,256C 149.963,253.592 148.296,250.259 148.5,246C 149.721,237.734 152.721,230.234 157.5,223.5 Z M 353.5,223.5 C 359.54,229.917 363.206,237.583 364.5,246.5C 362.939,255.274 357.939,258.441 349.5,256C 344.235,251.103 343.068,245.27 346,238.5C 348.322,233.364 350.822,228.364 353.5,223.5 Z M 87.5,302.5 C 96.8845,302.184 106.218,302.684 115.5,304C 127.992,306.559 134.825,314.059 136,326.5C 132,322.833 127.333,320.5 122,319.5C 114.549,321.128 112.549,325.462 116,332.5C 120.08,335.457 124.247,338.29 128.5,341C 119.463,343.324 111.463,341.324 104.5,335C 95.8106,325.789 90.1439,314.956 87.5,302.5 Z M 206.5,302.5 C 213.833,302.5 221.167,302.5 228.5,302.5C 225.715,316.914 218.715,328.747 207.5,338C 201.547,341.86 195.214,342.86 188.5,341C 192.756,337.955 196.923,334.788 201,331.5C 203.29,322.211 199.79,318.378 190.5,320C 186.916,322.041 183.416,324.208 180,326.5C 180.728,318.889 184.228,312.722 190.5,308C 195.74,305.534 201.073,303.7 206.5,302.5 Z M 283.5,302.5 C 290.841,302.334 298.174,302.5 305.5,303C 317.302,303.637 325.802,309.137 331,319.5C 332.15,321.754 332.484,324.087 332,326.5C 327.057,321.599 321.224,319.432 314.5,320C 309.657,324.38 309.323,329.046 313.5,334C 317.336,336.084 321.003,338.417 324.5,341C 315.546,343.073 307.546,341.073 300.5,335C 292.32,325.473 286.653,314.64 283.5,302.5 Z M 402.5,302.5 C 409.841,302.334 417.174,302.5 424.5,303C 421.668,315.97 415.335,327.303 405.5,337C 399.061,341.555 392.061,342.888 384.5,341C 388.756,337.955 392.923,334.788 397,331.5C 399.537,322.365 396.037,318.532 386.5,320C 382.996,321.918 379.663,324.084 376.5,326.5C 376.772,317 381.438,310.166 390.5,306C 394.623,304.808 398.623,303.641 402.5,302.5 Z"/></g>
<g><path style="opacity:0.926" d="M 252.5,140.5 C 255.32,140.248 257.986,140.748 260.5,142C 280.358,160.546 290.191,183.379 290,210.5C 283.894,231.818 269.727,240.985 247.5,238C 227.716,231.285 218.883,217.451 221,196.5C 225.582,174.319 236.082,155.652 252.5,140.5 Z M 254.5,161.5 C 257.298,162.706 259.465,164.706 261,167.5C 268.848,178.043 273.348,189.877 274.5,203C 274.673,210.32 271.673,215.987 265.5,220C 254.916,224.894 246.082,222.727 239,213.5C 235.502,203.622 236.169,193.956 241,184.5C 245.007,176.477 249.507,168.81 254.5,161.5 Z"/></g>
<g><path style="opacity:0.928" d="M 155.5,202.5 C 158.39,202.278 161.057,202.945 163.5,204.5C 175.578,216.323 182.578,230.657 184.5,247.5C 182.83,263.17 174.163,271.837 158.5,273.5C 137.017,269.552 128.85,256.885 134,235.5C 138.194,222.415 145.36,211.415 155.5,202.5 Z M 157.5,223.5 C 152.721,230.234 149.721,237.734 148.5,246C 148.296,250.259 149.963,253.592 153.5,256C 161.425,258.102 166.425,255.102 168.5,247C 167.362,237.894 163.695,230.061 157.5,223.5 Z"/></g>
<g><path style="opacity:0.928" d="M 351.5,202.5 C 354.794,202.259 357.794,203.092 360.5,205C 371.726,216.787 378.393,230.787 380.5,247C 379.067,262.933 370.4,271.766 354.5,273.5C 333.037,269.599 324.87,256.933 330,235.5C 334.642,222.723 341.808,211.723 351.5,202.5 Z M 353.5,223.5 C 350.822,228.364 348.322,233.364 346,238.5C 343.068,245.27 344.235,251.103 349.5,256C 357.939,258.441 362.939,255.274 364.5,246.5C 363.206,237.583 359.54,229.917 353.5,223.5 Z"/></g>
</svg>
