<svg xmlns="http://www.w3.org/2000/svg" version="1.1" viewBox='0 0 512 512' style="shape-rendering:geometricPrecision; text-rendering:geometricPrecision; image-rendering:optimizeQuality; fill-rule:evenodd; clip-rule:evenodd" xmlns:xlink="http://www.w3.org/1999/xlink">
<g><path style="opacity:0.924" fill="#000000" d="M 239.5,-0.5 C 250.167,-0.5 260.833,-0.5 271.5,-0.5C 313.141,6.23449 344.974,27.5678 367,63.5C 389.83,108.071 388.83,152.071 364,195.5C 334,240.167 304,284.833 274,329.5C 261.667,341.5 249.333,341.5 237,329.5C 207,284.833 177,240.167 147,195.5C 122.17,152.066 121.17,108.066 144,63.5C 147.676,56.9573 152.176,51.1239 157.5,46C 167.126,45.29 170.292,49.4566 167,58.5C 142.611,91.9313 137.277,128.265 151,167.5C 153.473,173.779 156.473,179.779 160,185.5C 189.667,229.833 219.333,274.167 249,318.5C 253.333,323.833 257.667,323.833 262,318.5C 292.667,272.5 323.333,226.5 354,180.5C 375.661,135.149 370.994,92.8159 340,53.5C 303.517,16.0042 260.683,6.17086 211.5,24C 201.376,29.1411 191.543,34.6411 182,40.5C 174.758,38.7598 172.425,34.4264 175,27.5C 193.957,12.2704 215.457,2.9371 239.5,-0.5 Z M 245.5,75.5 C 272.959,72.6408 292.459,83.6408 304,108.5C 312.182,138.297 302.682,160.464 275.5,175C 244.256,184.457 221.423,174.624 207,145.5C 198.818,115.703 208.318,93.5363 235.5,79C 238.98,77.8974 242.313,76.7308 245.5,75.5 Z M 249.5,105.5 C 268.284,104.119 277.451,112.786 277,131.5C 271.173,147.327 260.34,152.161 244.5,146C 232.626,137.162 230.459,126.328 238,113.5C 241.482,110.161 245.315,107.494 249.5,105.5 Z"/></g>
<g><path style="opacity:0.926" fill="#000000" d="M 243.5,59.5 C 277.445,56.2181 302.279,69.5514 318,99.5C 330.068,134.622 321.235,163.122 291.5,185C 271.589,195.692 250.922,197.358 229.5,190C 197.153,174.144 183.653,148.311 189,112.5C 196.868,84.1304 215.035,66.4637 243.5,59.5 Z M 245.5,75.5 C 242.313,76.7308 238.98,77.8974 235.5,79C 208.318,93.5363 198.818,115.703 207,145.5C 221.423,174.624 244.256,184.457 275.5,175C 302.682,160.464 312.182,138.297 304,108.5C 292.459,83.6408 272.959,72.6408 245.5,75.5 Z M 249.5,105.5 C 245.315,107.494 241.482,110.161 238,113.5C 230.459,126.328 232.626,137.162 244.5,146C 260.34,152.161 271.173,147.327 277,131.5C 277.451,112.786 268.284,104.119 249.5,105.5 Z"/></g>
<g><path style="opacity:0.926" fill="#000000" d="M 246.5,89.5 C 277.815,87.6513 293.315,102.318 293,133.5C 286.575,157.227 271.075,167.394 246.5,164C 225.599,157.043 216.099,142.543 218,120.5C 221.473,104.531 230.973,94.1975 246.5,89.5 Z M 249.5,105.5 C 245.315,107.494 241.482,110.161 238,113.5C 230.459,126.328 232.626,137.162 244.5,146C 260.34,152.161 271.173,147.327 277,131.5C 277.451,112.786 268.284,104.119 249.5,105.5 Z"/></g>
<g><path style="opacity:0.928" fill="#000000" d="M 511.5,499.5 C 511.5,502.5 511.5,505.5 511.5,508.5C 510.128,509.512 508.795,510.512 507.5,511.5C 505.167,511.5 502.833,511.5 500.5,511.5C 461.41,487.6 421.91,464.266 382,441.5C 341.997,464.697 302.164,488.03 262.5,511.5C 257.833,511.5 253.167,511.5 248.5,511.5C 208.836,488.03 169.003,464.697 129,441.5C 113.117,450.527 97.2837,459.693 81.5,469C 73.3809,470.875 69.5476,467.708 70,459.5C 70.7845,457.714 71.9512,456.214 73.5,455C 89.6667,445.5 105.833,436 122,426.5C 131.181,394.43 139.681,362.43 147.5,330.5C 122.917,345.041 98.4172,359.708 74,374.5C 57.6623,410.828 41.6623,447.161 26,483.5C 32.0827,479.541 38.2494,475.708 44.5,472C 55.0126,466.869 59.8459,470.035 59,481.5C 43.0207,491.901 26.854,501.901 10.5,511.5C 8.16667,511.5 5.83333,511.5 3.5,511.5C 2.20498,510.512 0.871651,509.512 -0.5,508.5C -0.5,505.5 -0.5,502.5 -0.5,499.5C 20.2841,453.924 41.1174,408.257 62,362.5C 92.4217,343.703 123.255,325.536 154.5,308C 161.799,306.27 168.799,307.27 175.5,311C 202.002,327.085 228.668,342.919 255.5,358.5C 283.63,342.199 311.63,325.699 339.5,309C 349.073,305.649 358.073,306.982 366.5,313C 394.083,329.374 421.583,345.874 449,362.5C 469.883,408.257 490.716,453.924 511.5,499.5 Z M 166.5,325.5 C 193.524,340.765 220.358,356.432 247,372.5C 247.833,412.171 247.667,451.838 246.5,491.5C 210.5,470.167 174.5,448.833 138.5,427.5C 148.041,393.545 157.374,359.545 166.5,325.5 Z M 342.5,325.5 C 343.75,325.577 344.583,326.244 345,327.5C 354.067,360.867 363.234,394.201 372.5,427.5C 336.5,448.833 300.5,470.167 264.5,491.5C 263.333,451.838 263.167,412.171 264,372.5C 290.337,356.97 316.504,341.303 342.5,325.5 Z M 362.5,330.5 C 387.525,344.766 412.359,359.432 437,374.5C 453.338,410.828 469.338,447.161 485,483.5C 453.165,464.248 421.165,445.248 389,426.5C 380.163,394.482 371.329,362.482 362.5,330.5 Z"/></g>
</svg>
