<svg xmlns="http://www.w3.org/2000/svg" version="1.1" viewBox='0 0 512 512' style="shape-rendering:geometricPrecision; text-rendering:geometricPrecision; image-rendering:optimizeQuality; fill-rule:evenodd; clip-rule:evenodd" xmlns:xlink="http://www.w3.org/1999/xlink">
<g><path style="opacity:0.964" fill="#000000" d="M 112.5,31.5 C 133.257,28.6888 150.091,35.3555 163,51.5C 175.873,71.7221 175.539,91.7221 162,111.5C 141.387,133.034 118.22,136.201 92.5,121C 70.7554,101.266 66.9221,78.4329 81,52.5C 89.1441,41.8528 99.6441,34.8528 112.5,31.5 Z M 116.5,64.5 C 129.161,62.8467 136.828,68.18 139.5,80.5C 136.774,94.0218 128.774,99.1885 115.5,96C 105.146,89.6033 102.98,81.1033 109,70.5C 111.478,68.3606 113.978,66.3606 116.5,64.5 Z"/></g>
<g><path style="opacity:0.963" fill="#000000" d="M 245.5,31.5 C 271.895,28.4407 290.728,38.774 302,62.5C 310.32,91.5567 301.154,113.057 274.5,127C 246.052,135.745 224.552,127.245 210,101.5C 201.071,77.043 206.571,56.543 226.5,40C 232.453,36.0811 238.786,33.2477 245.5,31.5 Z M 250.5,64.5 C 263.175,62.9946 270.509,68.4946 272.5,81C 269.153,95.6721 260.487,100.339 246.5,95C 236.748,86.6014 236.081,77.6014 244.5,68C 246.432,66.5415 248.432,65.3748 250.5,64.5 Z"/></g>
<g><path style="opacity:0.964" fill="#000000" d="M 378.5,31.5 C 407.788,28.6599 427.288,40.9932 437,68.5C 441.745,98.5229 429.911,118.69 401.5,129C 376.251,133.954 357.084,125.454 344,103.5C 333.72,78.4541 338.887,57.2874 359.5,40C 365.453,36.0811 371.786,33.2477 378.5,31.5 Z M 383.5,64.5 C 401.506,63.9959 408.006,72.3292 403,89.5C 393.968,99.7153 384.635,100.049 375,90.5C 369.229,78.8936 372.062,70.2269 383.5,64.5 Z"/></g>
<g><path style="opacity:0.964" fill="#000000" d="M 115.5,147.5 C 149.24,147.076 168.24,163.576 172.5,197C 169.644,227.856 152.81,244.69 122,247.5C 91.7179,244.218 75.2179,227.384 72.5,197C 74.9492,170.058 89.2826,153.558 115.5,147.5 Z M 118.5,180.5 C 130.546,179.876 137.546,185.542 139.5,197.5C 136.357,211.501 128.024,216.334 114.5,212C 102.988,202.739 102.655,193.073 113.5,183C 115.315,182.243 116.981,181.41 118.5,180.5 Z"/></g>
<g><path style="opacity:0.964" fill="#000000" d="M 248.5,147.5 C 276.682,146.203 295.182,158.869 304,185.5C 308.206,211.588 298.706,230.755 275.5,243C 253.134,251.034 233.634,246.534 217,229.5C 202.137,208.699 201.804,187.699 216,166.5C 224.585,156.131 235.418,149.798 248.5,147.5 Z M 251.5,180.5 C 263.32,179.817 270.32,185.317 272.5,197C 269.604,211.251 261.27,216.251 247.5,212C 238.49,205.46 236.657,197.294 242,187.5C 244.529,184.115 247.696,181.782 251.5,180.5 Z"/></g>
<g><path style="opacity:0.964" fill="#000000" d="M 381.5,147.5 C 407.939,145.793 426.105,157.126 436,181.5C 441.772,202.843 436.605,221.01 420.5,236C 398.745,250.935 377.078,250.601 355.5,235C 335.921,213.86 333.754,191.027 349,166.5C 357.585,156.131 368.418,149.798 381.5,147.5 Z M 384.5,180.5 C 396.362,179.866 403.362,185.366 405.5,197C 404.396,207.271 398.729,213.104 388.5,214.5C 373.308,210.783 368.808,201.783 375,187.5C 377.825,184.524 380.992,182.191 384.5,180.5 Z"/></g>
<g><path style="opacity:0.964" fill="#000000" d="M 121.5,263.5 C 152.574,266.074 169.574,282.907 172.5,314C 169.214,344.119 152.548,360.619 122.5,363.5C 99.1773,362.592 83.344,351.259 75,329.5C 69.228,308.157 74.3947,289.99 90.5,275C 99.8775,268.267 110.211,264.433 121.5,263.5 Z M 121.5,296.5 C 137.394,299.623 142.227,308.623 136,323.5C 126.365,333.049 117.032,332.715 108,322.5C 103.286,308.926 107.786,300.259 121.5,296.5 Z"/></g>
<g><path style="opacity:0.964" fill="#000000" d="M 254.5,263.5 C 291.245,267.985 307.745,288.652 304,325.5C 296.752,349.542 280.585,362.208 255.5,363.5C 230.415,362.208 214.248,349.542 207,325.5C 202.794,299.412 212.294,280.245 235.5,268C 241.785,265.677 248.118,264.177 254.5,263.5 Z M 254.5,296.5 C 270.396,299.628 275.23,308.628 269,323.5C 260,332.833 251,332.833 242,323.5C 235.918,309.668 240.084,300.668 254.5,296.5 Z"/></g>
<g><path style="opacity:0.964" fill="#000000" d="M 388.5,263.5 C 419.066,266.566 435.732,283.399 438.5,314C 437.442,337.122 426.108,352.789 404.5,361C 375.623,367.976 354.789,358.143 342,331.5C 334.593,307.949 340.426,288.449 359.5,273C 368.456,267.292 378.122,264.125 388.5,263.5 Z M 387.5,296.5 C 402.692,299.22 407.859,307.886 403,322.5C 393.968,332.715 384.635,333.049 375,323.5C 368.921,309.662 373.087,300.662 387.5,296.5 Z"/></g>
<g><path style="opacity:0.963" fill="#000000" d="M 248.5,380.5 C 276.703,379.173 295.203,391.84 304,418.5C 308.206,444.588 298.706,463.755 275.5,476C 245.395,485.531 223.229,476.365 209,448.5C 201.092,423.619 207.592,403.452 228.5,388C 234.878,384.379 241.545,381.879 248.5,380.5 Z M 251.5,413.5 C 262.262,412.431 269.096,417.097 272,427.5C 272.653,436.503 268.82,442.67 260.5,446C 244.376,447.545 237.543,440.378 240,424.5C 242.437,419.226 246.271,415.56 251.5,413.5 Z"/></g>
</svg>
