<svg version="1.1" id="Layer_1" xmlns="http://www.w3.org/2000/svg" xmlns:xlink="http://www.w3.org/1999/xlink" x="0px" y="0px"
	 width="100%" viewBox="0 0 512 512" enable-background="new 0 0 512 512" xml:space="preserve">
<path fill="#000000" opacity="1.000000" stroke="none" 
	d="
M236.000000,1.000000 
	C249.687561,1.000000 263.375122,1.000000 277.669006,1.386689 
	C290.569427,4.843760 303.059814,7.294735 315.115936,11.115937 
	C338.816254,18.627787 359.032928,32.229710 376.757477,49.413044 
	C386.701782,59.053715 395.054626,70.058144 402.529999,81.838501 
	C417.937927,106.119530 425.812378,132.772537 427.756195,161.099808 
	C428.560974,172.827621 426.951355,184.764328 425.942108,196.563461 
	C424.344055,215.245743 417.683441,232.527557 409.836090,249.294769 
	C405.486755,258.587952 399.937500,267.317291 394.977173,276.327301 
	C387.226807,290.405273 379.576599,304.538635 371.776459,318.588867 
	C360.387604,339.103241 348.852417,359.536346 337.477875,380.058563 
	C329.846283,393.827637 322.439667,407.721283 314.835388,421.505707 
	C301.252930,446.126953 287.705566,470.768860 273.896515,495.262909 
	C270.410797,501.445770 265.990723,507.101868 262.000000,513.000000 
	C258.969421,513.000000 255.938812,513.000000 252.371201,512.652893 
	C249.577118,509.670654 246.831406,507.312653 245.151138,504.350342 
	C239.211288,493.878326 233.729721,483.147675 227.902847,472.609955 
	C216.156784,451.367493 204.254257,430.211578 192.501465,408.972809 
	C184.878204,395.196594 177.488068,381.291229 169.846268,367.525452 
	C158.375778,346.862732 146.725311,326.299988 135.252472,305.638550 
	C129.326660,294.966797 123.967232,283.966827 117.732536,273.483490 
	C107.857849,256.879730 98.624214,239.994766 93.166084,221.380630 
	C88.813179,206.535721 85.786224,191.359116 86.088806,175.800674 
	C86.273712,166.293518 87.293648,156.800522 88.005722,147.306198 
	C89.164101,131.861115 94.031120,117.319359 100.101448,103.318840 
	C111.552139,76.909111 128.764801,54.720501 151.533051,36.964813 
	C171.485092,21.405334 193.746536,10.666368 218.427429,4.999106 
	C224.282349,3.654693 230.142334,2.332443 236.000000,1.000000 
M208.055710,102.427559 
	C195.457031,112.607452 184.694839,124.137115 178.699921,139.633347 
	C172.142853,156.582550 170.127640,173.626038 174.731400,191.463882 
	C179.365952,209.420990 188.485336,224.201569 202.618820,236.289810 
	C215.555847,247.354721 230.429825,253.985687 247.002090,255.790390 
	C265.265076,257.779175 282.907593,254.643646 299.082092,245.034378 
	C317.342712,234.185715 330.267792,219.074738 337.014496,198.861298 
	C340.900604,187.218460 342.767944,175.480682 341.209259,163.001602 
	C339.806427,151.770706 336.903809,141.091492 331.559479,131.402527 
	C323.872406,117.466286 312.891693,106.451759 298.932892,98.299881 
	C280.671204,87.635162 261.112885,84.659088 240.731018,88.329529 
	C229.241501,90.398605 218.420685,95.243347 208.055710,102.427559 
z"/>
<path fill="#FFFFFF" opacity="1.000000" stroke="none" 
	d="
M262.468689,513.000000 
	C265.990723,507.101868 270.410797,501.445770 273.896515,495.262909 
	C287.705566,470.768860 301.252930,446.126953 314.835388,421.505707 
	C322.439667,407.721283 329.846283,393.827637 337.477875,380.058563 
	C348.852417,359.536346 360.387604,339.103241 371.776459,318.588867 
	C379.576599,304.538635 387.226807,290.405273 394.977173,276.327301 
	C399.937500,267.317291 405.486755,258.587952 409.836090,249.294769 
	C417.683441,232.527557 424.344055,215.245743 425.942108,196.563461 
	C426.951355,184.764328 428.560974,172.827621 427.756195,161.099808 
	C425.812378,132.772537 417.937927,106.119530 402.529999,81.838501 
	C395.054626,70.058144 386.701782,59.053715 376.757477,49.413044 
	C359.032928,32.229710 338.816254,18.627787 315.115936,11.115937 
	C303.059814,7.294735 290.569427,4.843760 278.137665,1.386689 
	C356.298981,1.000000 434.597992,1.000000 512.948486,1.000000 
	C512.948486,171.557495 512.948486,342.115021 512.948486,513.000000 
	C429.646057,513.000000 346.291687,513.000000 262.468689,513.000000 
z"/>
<path fill="#FFFFFF" opacity="1.000000" stroke="none" 
	d="
M235.531342,1.000000 
	C230.142334,2.332443 224.282349,3.654693 218.427429,4.999106 
	C193.746536,10.666368 171.485092,21.405334 151.533051,36.964813 
	C128.764801,54.720501 111.552139,76.909111 100.101448,103.318840 
	C94.031120,117.319359 89.164101,131.861115 88.005722,147.306198 
	C87.293648,156.800522 86.273712,166.293518 86.088806,175.800674 
	C85.786224,191.359116 88.813179,206.535721 93.166084,221.380630 
	C98.624214,239.994766 107.857849,256.879730 117.732536,273.483490 
	C123.967232,283.966827 129.326660,294.966797 135.252472,305.638550 
	C146.725311,326.299988 158.375778,346.862732 169.846268,367.525452 
	C177.488068,381.291229 184.878204,395.196594 192.501465,408.972809 
	C204.254257,430.211578 216.156784,451.367493 227.902847,472.609955 
	C233.729721,483.147675 239.211288,493.878326 245.151138,504.350342 
	C246.831406,507.312653 249.577118,509.670654 251.917084,512.652893 
	C168.370010,513.000000 84.740036,513.000000 1.055026,513.000000 
	C1.055026,342.444855 1.055026,171.889694 1.055026,1.000000 
	C79.020576,1.000000 157.041626,1.000000 235.531342,1.000000 
z"/>
<path fill="#FFFFFF" opacity="1.000000" stroke="none" 
	d="
M208.370209,102.227707 
	C218.420685,95.243347 229.241501,90.398605 240.731018,88.329529 
	C261.112885,84.659088 280.671204,87.635162 298.932892,98.299881 
	C312.891693,106.451759 323.872406,117.466286 331.559479,131.402527 
	C336.903809,141.091492 339.806427,151.770706 341.209259,163.001602 
	C342.767944,175.480682 340.900604,187.218460 337.014496,198.861298 
	C330.267792,219.074738 317.342712,234.185715 299.082092,245.034378 
	C282.907593,254.643646 265.265076,257.779175 247.002090,255.790390 
	C230.429825,253.985687 215.555847,247.354721 202.618820,236.289810 
	C188.485336,224.201569 179.365952,209.420990 174.731400,191.463882 
	C170.127640,173.626038 172.142853,156.582550 178.699921,139.633347 
	C184.694839,124.137115 195.457031,112.607452 208.370209,102.227707 
z"/>
</svg>