<svg xmlns="http://www.w3.org/2000/svg" version="1.1" viewBox='0 0 512 512' width="512px" height="512px" style="shape-rendering:geometricPrecision; text-rendering:geometricPrecision; image-rendering:optimizeQuality; fill-rule:evenodd; clip-rule:evenodd" xmlns:xlink="http://www.w3.org/1999/xlink">
<g><path style="opacity:0.989" fill="#000000" d="M 151.5,51.5 C 160.173,51.3336 168.84,51.5002 177.5,52C 198.386,60.3167 205.22,75.15 198,96.5C 193.698,104.138 187.531,109.638 179.5,113C 147.114,112.621 119.948,124.121 98,147.5C 80.3325,169.682 72.8325,195.016 75.5,223.5C 108.835,223.333 142.168,223.5 175.5,224C 197.442,227.941 210.942,240.775 216,262.5C 216.667,315.167 216.667,367.833 216,420.5C 211.627,440.761 199.461,453.594 179.5,459C 136.167,459.667 92.8333,459.667 49.5,459C 30.4076,454.24 18.2409,442.407 13,423.5C 11.3551,349.193 11.0217,274.86 12,200.5C 17.7041,135.874 49.8708,90.0404 108.5,63C 122.499,57.419 136.833,53.5856 151.5,51.5 Z"/></g>
<g><path style="opacity:0.99" fill="#000000" d="M 434.5,51.5 C 442.84,51.3336 451.173,51.5003 459.5,52C 474.603,56.776 482.603,67.1093 483.5,83C 482.292,99.0835 473.959,109.417 458.5,114C 410.807,114.73 378.641,137.23 362,181.5C 358.752,195.295 357.252,209.295 357.5,223.5C 390.835,223.333 424.168,223.5 457.5,224C 476.981,227.146 490.147,237.98 497,256.5C 497.945,260.114 498.612,263.781 499,267.5C 499.667,317.167 499.667,366.833 499,416.5C 496.063,439.104 483.563,453.27 461.5,459C 418.167,459.667 374.833,459.667 331.5,459C 311.554,454.054 299.388,441.554 295,421.5C 294.333,345.167 294.333,268.833 295,192.5C 305.214,122.572 344.047,77.0724 411.5,56C 419.263,54.2657 426.929,52.7657 434.5,51.5 Z"/></g>
</svg>
