<svg xmlns="http://www.w3.org/2000/svg" version="1.1" style="shape-rendering:geometricPrecision; text-rendering:geometricPrecision; image-rendering:optimizeQuality; fill-rule:evenodd; clip-rule:evenodd" xmlns:xlink="http://www.w3.org/1999/xlink">
<g><path style="opacity:0.991" d="M -0.5,475.5 C -0.5,395.167 -0.5,314.833 -0.5,234.5C 11.9273,145.47 59.594,83.6362 142.5,49C 167.406,40.1824 193.072,35.6824 219.5,35.5C 219.5,60.1667 219.5,84.8333 219.5,109.5C 159.028,112.198 114.861,140.198 87,193.5C 77.8373,213.146 73.3373,233.813 73.5,255.5C 122.167,255.5 170.833,255.5 219.5,255.5C 219.5,328.833 219.5,402.167 219.5,475.5C 146.167,475.5 72.8333,475.5 -0.5,475.5 Z"/></g>
<g><path style="opacity:0.991" d="M 511.5,35.5 C 511.5,60.1667 511.5,84.8333 511.5,109.5C 451.751,112.274 407.918,139.941 380,192.5C 370.771,212.476 365.938,233.476 365.5,255.5C 414.167,255.5 462.833,255.5 511.5,255.5C 511.5,328.833 511.5,402.167 511.5,475.5C 438.167,475.5 364.833,475.5 291.5,475.5C 291.333,397.833 291.5,320.166 292,242.5C 298.384,167.883 332.55,110.05 394.5,69C 430.375,47.1128 469.375,35.9461 511.5,35.5 Z"/></g>
</svg>
