<svg xmlns="http://www.w3.org/2000/svg" version="1.1" style="shape-rendering:geometricPrecision; text-rendering:geometricPrecision; image-rendering:optimizeQuality; fill-rule:evenodd; clip-rule:evenodd" xmlns:xlink="http://www.w3.org/1999/xlink">
<g><path style="opacity:0.927" d="M 231.5,27.5 C 238.513,26.4357 244.847,27.9357 250.5,32C 258.158,39.4823 263.658,48.3156 267,58.5C 266.69,82.4737 254.523,93.6404 230.5,92C 213.915,87.0037 206.082,75.8371 207,58.5C 211.031,44.6632 219.198,34.3298 231.5,27.5 Z M 234.5,43.5 C 237.044,43.1043 239.211,43.771 241,45.5C 244.726,50.228 248.059,55.228 251,60.5C 250.685,72.4735 244.518,77.6402 232.5,76C 223.523,71.8936 221.023,65.3936 225,56.5C 227.998,52.0081 231.165,47.6748 234.5,43.5 Z"/></g>
<g><path style="opacity:0.923" d="M 336.5,67.5 C 342.563,66.8377 348.23,68.0044 353.5,71C 363.193,79.7273 369.527,90.3939 372.5,103C 369.246,124.92 356.58,134.92 334.5,133C 318.056,127.887 310.223,116.721 311,99.5C 314.51,88.3218 320.677,78.8218 329.5,71C 331.925,69.7874 334.259,68.6207 336.5,67.5 Z M 339.5,83.5 C 342.325,83.0807 344.491,84.0807 346,86.5C 348.911,89.9895 351.578,93.6562 354,97.5C 357.481,108.865 353.315,115.532 341.5,117.5C 332.677,117.012 327.677,112.346 326.5,103.5C 329.336,95.8203 333.669,89.1536 339.5,83.5 Z"/></g>
<g><path style="opacity:0.925" d="M 247.5,148.5 C 253.037,148.087 258.37,148.92 263.5,151C 277.984,161.467 286.651,175.467 289.5,193C 287.289,215.377 274.956,227.544 252.5,229.5C 230.044,227.544 217.711,215.377 215.5,193C 216.345,183.139 219.845,174.306 226,166.5C 231.6,158.381 238.766,152.381 247.5,148.5 Z M 250.5,164.5 C 255.775,165.247 259.942,167.914 263,172.5C 265.333,175.833 267.667,179.167 270,182.5C 275.64,192.544 274.14,201.378 265.5,209C 253.069,216.1 242.569,213.933 234,202.5C 230.519,195.667 230.853,189 235,182.5C 239.012,175.455 244.179,169.455 250.5,164.5 Z"/></g>
<g><path style="opacity:0.925" d="M 141.5,163.5 C 148.118,163.278 153.951,165.278 159,169.5C 165.514,176.524 170.514,184.524 174,193.5C 175.642,215.192 165.642,227.192 144,229.5C 120.834,225.831 111.5,212.497 116,189.5C 120.309,181.715 125.476,174.548 131.5,168C 134.703,165.997 138.036,164.497 141.5,163.5 Z M 143.5,179.5 C 152.709,184.927 157.542,192.927 158,203.5C 151.282,215.009 142.948,216.342 133,207.5C 129.546,201.655 129.88,195.988 134,190.5C 137.061,186.616 140.227,182.949 143.5,179.5 Z"/></g>
<g><path style="opacity:0.926" d="M 363.5,219.5 C 377.941,221.639 390.441,227.639 401,237.5C 410.104,254.639 407.604,269.806 393.5,283C 376.238,293.012 360.738,290.845 347,276.5C 341.836,267.522 340.169,257.855 342,247.5C 342.255,238.384 345.421,230.551 351.5,224C 355.301,221.584 359.301,220.084 363.5,219.5 Z M 364.5,235.5 C 370.593,237.7 376.593,240.2 382.5,243C 391.217,249.321 392.717,257.155 387,266.5C 377.347,276.107 368.014,275.773 359,265.5C 356.809,255.981 357.476,246.648 361,237.5C 362.302,236.915 363.469,236.249 364.5,235.5 Z"/></g>
<g><path style="opacity:0.93" d="M 511.5,396.5 C 511.5,424.167 511.5,451.833 511.5,479.5C 510.684,481.144 509.35,482.31 507.5,483C 460.417,483.99 413.417,483.656 366.5,482C 363.633,477.409 363.966,473.076 367.5,469C 368.5,468.667 369.5,468.333 370.5,468C 412.165,467.5 453.832,467.333 495.5,467.5C 495.667,444.831 495.5,422.164 495,399.5C 492.285,388.458 486.118,379.958 476.5,374C 470.297,370.992 463.797,369.159 457,368.5C 449.946,369.736 442.946,371.402 436,373.5C 426.742,372.245 420.408,367.245 417,358.5C 399.476,339.659 378.31,333.992 353.5,341.5C 347.427,341.714 342.594,339.38 339,334.5C 322.038,293.93 291.538,274.43 247.5,276C 241.383,276.823 235.383,278.157 229.5,280C 222.202,282.984 215.035,286.15 208,289.5C 201.099,288.25 198.766,284.25 201,277.5C 206.554,272.297 213.054,268.464 220.5,266C 266.245,251.31 305.078,261.81 337,297.5C 343.32,305.969 348.487,315.136 352.5,325C 387.953,316.59 415.786,327.424 436,357.5C 463.93,347.812 486.597,354.812 504,378.5C 507.212,384.328 509.712,390.328 511.5,396.5 Z"/></g>
<g><path style="opacity:0.938" d="M -0.5,479.5 C -0.5,451.833 -0.5,424.167 -0.5,396.5C 9.46064,364.832 31.1273,350.665 64.5,354C 66.1012,354.273 67.6012,354.773 69,355.5C 92.7106,323.821 123.044,315.154 160,329.5C 165.26,314.47 173.427,301.303 184.5,290C 194.569,288.732 198.069,292.898 195,302.5C 185.785,312.252 179.119,323.585 175,336.5C 171.534,341.95 166.534,344.95 160,345.5C 154.119,343.873 148.285,342.04 142.5,340C 124.722,336.154 108.722,339.821 94.5,351C 88.8099,357.688 82.8099,364.022 76.5,370C 74.2001,370.658 71.8668,371.158 69.5,371.5C 54.181,366.617 40.181,369.117 27.5,379C 20.2713,385.958 16.1046,394.458 15,404.5C 14.5,425.497 14.3334,446.497 14.5,467.5C 124.167,467.333 233.834,467.5 343.5,468C 351.421,471.605 352.421,476.605 346.5,483C 232.167,483.667 117.833,483.667 3.5,483C 1.64977,482.31 0.316435,481.144 -0.5,479.5 Z"/></g>
<g><path style="opacity:0.925" d="M 241.5,312.5 C 248.565,312.573 254.398,315.24 259,320.5C 266.596,333.454 268.596,347.121 265,361.5C 258.338,373.252 248.171,378.919 234.5,378.5C 236.512,395.528 244.012,409.528 257,420.5C 258.782,427.282 256.282,431.282 249.5,432.5C 246.893,431.863 244.56,430.696 242.5,429C 236.552,422.732 231.052,416.232 226,409.5C 215.387,413.111 207.553,419.945 202.5,430C 196.655,433.914 192.155,432.747 189,426.5C 188.333,424.833 188.333,423.167 189,421.5C 195.69,407.972 206.19,398.972 220.5,394.5C 218.915,386.575 217.749,378.575 217,370.5C 202.607,354.492 203.107,338.992 218.5,324C 225.758,319.038 233.424,315.204 241.5,312.5 Z M 242.5,328.5 C 244.708,329.023 246.208,330.356 247,332.5C 249.216,337.98 250.716,343.646 251.5,349.5C 250.031,357.464 245.198,361.797 237,362.5C 224.557,359.607 220.557,352.274 225,340.5C 230.463,335.856 236.296,331.856 242.5,328.5 Z"/></g>
<g><path style="opacity:0.87" d="M 299.5,337.5 C 308.57,337.876 311.57,342.209 308.5,350.5C 303.622,354.73 299.122,354.397 295,349.5C 293.309,344.131 294.809,340.131 299.5,337.5 Z"/></g>
<g><path style="opacity:0.861" d="M 71.5,403.5 C 79.6138,402.121 83.4472,405.454 83,413.5C 79.402,419.703 74.7353,420.703 69,416.5C 66.4668,411.351 67.3001,407.018 71.5,403.5 Z"/></g>
<g><path style="opacity:0.865" d="M 311.5,403.5 C 322.63,403.106 325.63,407.773 320.5,417.5C 316.511,419.95 312.677,419.617 309,416.5C 306.458,411.438 307.292,407.105 311.5,403.5 Z"/></g>
<g><path style="opacity:0.874" d="M 379.5,403.5 C 386.026,402.251 390.026,404.751 391.5,411C 388.395,419.814 383.228,421.314 376,415.5C 374.593,410.556 375.759,406.556 379.5,403.5 Z"/></g>
<g><path style="opacity:0.848" d="M 443.5,420.5 C 451.168,420.332 454.335,423.999 453,431.5C 450.928,436.143 447.428,437.643 442.5,436C 438.139,433.774 436.639,430.274 438,425.5C 439.107,422.887 440.94,421.22 443.5,420.5 Z"/></g>
<g><path style="opacity:0.865" d="M 134.5,424.5 C 141.185,425.208 144.019,428.875 143,435.5C 140.565,440.224 136.731,441.724 131.5,440C 127.247,436.58 126.413,432.413 129,427.5C 130.876,426.391 132.709,425.391 134.5,424.5 Z"/></g>
</svg>
