<svg xmlns="http://www.w3.org/2000/svg" version="1.1" viewBox='0 0 512 512' style="shape-rendering:geometricPrecision; text-rendering:geometricPrecision; image-rendering:optimizeQuality; fill-rule:evenodd; clip-rule:evenodd" xmlns:xlink="http://www.w3.org/1999/xlink">
<g><path style="opacity:0.932" d="M 511.5,105.5 C 511.5,108.5 511.5,111.5 511.5,114.5C 497.195,123.99 482.862,133.49 468.5,143C 458.488,144.32 454.988,140.154 458,130.5C 461.222,127.612 464.722,125.112 468.5,123C 408.158,131.887 353.158,153.887 303.5,189C 328.555,196.161 352.889,194.161 376.5,183C 389.156,177.009 401.156,170.009 412.5,162C 422.807,157.063 427.64,160.229 427,171.5C 406.529,187.654 383.696,199.487 358.5,207C 342.173,210.526 325.839,210.86 309.5,208C 301.688,206.132 294.022,204.132 286.5,202C 274.406,211.423 262.906,221.59 252,232.5C 251.5,255.498 251.333,278.498 251.5,301.5C 279.264,304.799 302.764,316.465 322,336.5C 326.455,341.905 330.288,347.739 333.5,354C 373.073,354.605 401.407,372.605 418.5,408C 443.248,410.271 462.082,421.771 475,442.5C 478.827,450.561 479.327,458.727 476.5,467C 474.913,467.862 473.246,468.529 471.5,469C 323.5,469.667 175.5,469.667 27.5,469C 23.1641,467.83 20.8308,464.996 20.5,460.5C 25.7433,427.422 44.9099,408.756 78,404.5C 93.3046,357.861 124.138,326.361 170.5,310C 191.566,302.711 213.232,299.545 235.5,300.5C 235.399,268.161 234.899,235.828 234,203.5C 225.833,194.667 217.667,185.833 209.5,177C 178.596,184.713 148.929,181.046 120.5,166C 108.976,159.073 97.9761,151.406 87.5,143C 58.2444,116.901 28.911,91.0672 -0.5,65.5C -0.5,62.8333 -0.5,60.1667 -0.5,57.5C 0.961599,56.5423 2.29493,55.3756 3.5,54C 43.1964,41.8803 83.5297,39.2136 124.5,46C 156.431,52.038 182.931,67.2047 204,91.5C 220.991,113.465 226.991,138.132 222,165.5C 226.701,169.866 231.034,174.533 235,179.5C 237.595,159.121 243.595,139.788 253,121.5C 257.07,114.76 261.904,108.593 267.5,103C 276.854,100.355 281.021,103.855 280,113.5C 266.722,127.959 258.388,144.959 255,164.5C 251.826,179.351 250.826,194.351 252,209.5C 259.704,202.127 267.704,195.127 276,188.5C 273.641,164.578 279.974,143.244 295,124.5C 317.961,98.7688 346.795,84.2688 381.5,81C 425.016,76.9619 466.683,83.9619 506.5,102C 508.323,102.997 509.99,104.164 511.5,105.5 Z M 67.5,58.5 C 102.735,55.8363 135.735,63.003 166.5,80C 191.606,96.3722 205.272,119.539 207.5,149.5C 206.448,149.649 205.448,149.483 204.5,149C 158.284,107.547 104.951,78.5474 44.5,62C 52.2532,60.447 59.9199,59.2803 67.5,58.5 Z M 41.5,79.5 C 99.2437,94.3738 150.244,121.874 194.5,162C 170.499,166.443 147.832,162.443 126.5,150C 115.554,142.721 104.888,135.054 94.5,127C 76.6644,111.33 58.9977,95.4964 41.5,79.5 Z M 387.5,96.5 C 414.498,94.8335 440.832,98.0002 466.5,106C 403.168,115.598 345.501,138.765 293.5,175.5C 292.348,172.894 292.182,170.227 293,167.5C 297.56,148.616 307.394,133.116 322.5,121C 341.987,107.005 363.653,98.8384 387.5,96.5 Z M 218.5,316.5 C 248.18,314.168 275.18,321.334 299.5,338C 303,341.5 306.5,345 310,348.5C 314.625,355.582 319.125,362.749 323.5,370C 356.988,367.467 382.488,380.3 400,408.5C 401.847,413.694 404.347,418.528 407.5,423C 420.497,424.4 432.83,428.067 444.5,434C 451.748,438.082 457.082,443.915 460.5,451.5C 320.168,452.667 179.835,452.833 39.5,452C 48.6738,429.485 65.5071,418.985 90,420.5C 104.749,367.419 138.916,334.252 192.5,321C 201.255,319.153 209.921,317.653 218.5,316.5 Z"/></g>
</svg>
