<svg xmlns="http://www.w3.org/2000/svg" version="1.1" width="512px" height="512px" viewBox='0 0 512 512' style="shape-rendering:geometricPrecision; text-rendering:geometricPrecision; image-rendering:optimizeQuality; fill-rule:evenodd; clip-rule:evenodd" xmlns:xlink="http://www.w3.org/1999/xlink">
<g><path style="opacity:0.95" fill="#000000" d="M 511.5,49.5 C 511.5,160.167 511.5,270.833 511.5,381.5C 506.045,399.449 494.045,410.283 475.5,414C 420.834,414.5 366.168,414.667 311.5,414.5C 310.767,440.526 320.433,461.693 340.5,478C 353.833,478.333 367.167,478.667 380.5,479C 386.098,481.695 387.598,485.862 385,491.5C 384.097,492.701 382.931,493.535 381.5,494C 297.5,494.667 213.5,494.667 129.5,494C 124.248,490.914 123.248,486.747 126.5,481.5C 127.665,480.416 128.998,479.583 130.5,479C 143.833,478.667 157.167,478.333 170.5,478C 190.567,461.693 200.233,440.526 199.5,414.5C 188.162,414.667 176.828,414.5 165.5,414C 158.868,409.045 158.868,404.045 165.5,399C 268.5,398.667 371.5,398.333 474.5,398C 487.907,394.257 495.074,385.424 496,371.5C 496.5,359.505 496.667,347.505 496.5,335.5C 335.833,335.5 175.167,335.5 14.5,335.5C 14.1307,349.874 14.6307,364.207 16,378.5C 19.2644,388.765 26.0978,395.265 36.5,398C 71.5,398.333 106.5,398.667 141.5,399C 146.224,401.435 147.724,405.269 146,410.5C 144.786,412.049 143.286,413.215 141.5,414C 106.167,414.667 70.8333,414.667 35.5,414C 16.9547,410.283 4.95468,399.449 -0.5,381.5C -0.5,270.833 -0.5,160.167 -0.5,49.5C 4.14406,34.0199 14.1441,23.5199 29.5,18C 44.1116,16.4014 58.7783,16.0681 73.5,17C 79.3301,23.0065 78.6635,28.0065 71.5,32C 58.4306,32.0566 45.4306,32.7233 32.5,34C 24.1782,37.6549 18.6782,43.8215 16,52.5C 14.518,141.473 14.018,230.473 14.5,319.5C 175.167,319.5 335.833,319.5 496.5,319.5C 496.667,232.833 496.5,146.166 496,59.5C 495.172,46.0071 488.339,37.1737 475.5,33C 349.5,32.6667 223.5,32.3333 97.5,32C 90.3365,28.0065 89.6699,23.0065 95.5,17C 222.833,16.3333 350.167,16.3333 477.5,17C 494.916,21.5848 506.249,32.4182 511.5,49.5 Z M 142.5,88.5 C 163.182,86.3571 177.515,94.8571 185.5,114C 193.549,114.895 201.549,116.228 209.5,118C 225.218,126.274 231.052,139.107 227,156.5C 221.799,169.368 212.299,176.535 198.5,178C 167.167,178.667 135.833,178.667 104.5,178C 85.5789,173.979 77.7455,162.479 81,143.5C 83.7441,135.755 88.9107,130.255 96.5,127C 101.565,126.076 106.565,124.909 111.5,123.5C 114.179,116.302 117.346,109.302 121,102.5C 126.894,95.6512 134.061,90.9845 142.5,88.5 Z M 409.5,119.5 C 416.833,119.5 424.167,119.5 431.5,119.5C 431.5,167.5 431.5,215.5 431.5,263.5C 424.167,263.5 416.833,263.5 409.5,263.5C 409.5,215.5 409.5,167.5 409.5,119.5 Z M 335.5,169.5 C 342.833,169.5 350.167,169.5 357.5,169.5C 357.5,200.833 357.5,232.167 357.5,263.5C 350.167,263.5 342.833,263.5 335.5,263.5C 335.5,232.167 335.5,200.833 335.5,169.5 Z M 261.5,199.5 C 269.167,199.5 276.833,199.5 284.5,199.5C 284.5,220.833 284.5,242.167 284.5,263.5C 276.833,263.5 269.167,263.5 261.5,263.5C 261.5,242.167 261.5,220.833 261.5,199.5 Z M 215.5,414.5 C 242.167,414.5 268.833,414.5 295.5,414.5C 294.584,438.586 301.917,459.753 317.5,478C 276.167,478.667 234.833,478.667 193.5,478C 209.459,459.897 216.792,438.73 215.5,414.5 Z"/></g>
<g><path style="opacity:0.956" fill="#000000" d="M 37.5,46.5 C 182.834,46.3333 328.167,46.5 473.5,47C 476.937,48.1049 479.437,50.2716 481,53.5C 481.667,106.5 481.667,159.5 481,212.5C 479.607,215.366 477.274,216.699 474,216.5C 470.726,216.699 468.393,215.366 467,212.5C 466.5,162.501 466.333,112.501 466.5,62.5C 325.833,62.5 185.167,62.5 44.5,62.5C 44.5,138.167 44.5,213.833 44.5,289.5C 185.167,289.5 325.833,289.5 466.5,289.5C 466.333,271.164 466.5,252.83 467,234.5C 471.667,229.167 476.333,229.167 481,234.5C 481.667,255.5 481.667,276.5 481,297.5C 479.833,301.333 477.333,303.833 473.5,305C 328.167,305.667 182.833,305.667 37.5,305C 33.6667,303.833 31.1667,301.333 30,297.5C 29.3333,216.167 29.3333,134.833 30,53.5C 31.7424,50.2543 34.2424,47.921 37.5,46.5 Z M 142.5,88.5 C 134.061,90.9845 126.894,95.6512 121,102.5C 117.346,109.302 114.179,116.302 111.5,123.5C 106.565,124.909 101.565,126.076 96.5,127C 88.9107,130.255 83.7441,135.755 81,143.5C 77.7455,162.479 85.5789,173.979 104.5,178C 135.833,178.667 167.167,178.667 198.5,178C 212.299,176.535 221.799,169.368 227,156.5C 231.052,139.107 225.218,126.274 209.5,118C 201.549,116.228 193.549,114.895 185.5,114C 177.515,94.8571 163.182,86.3571 142.5,88.5 Z"/></g>
<g><path style="opacity:0.929" fill="#000000" d="M 140.5,72.5 C 164.439,69.6388 182.772,78.3054 195.5,98.5C 229.057,102.218 245.224,120.885 244,154.5C 240.408,171.754 230.575,183.921 214.5,191C 209.322,192.798 203.989,193.798 198.5,194C 167.5,194.667 136.5,194.667 105.5,194C 74.2503,189.685 60.7503,171.852 65,140.5C 70.4609,122.873 82.2942,112.539 100.5,109.5C 106.816,89.515 120.15,77.1817 140.5,72.5 Z M 142.5,88.5 C 134.061,90.9845 126.894,95.6512 121,102.5C 117.346,109.302 114.179,116.302 111.5,123.5C 106.565,124.909 101.565,126.076 96.5,127C 88.9107,130.255 83.7441,135.755 81,143.5C 77.7455,162.479 85.5789,173.979 104.5,178C 135.833,178.667 167.167,178.667 198.5,178C 212.299,176.535 221.799,169.368 227,156.5C 231.052,139.107 225.218,126.274 209.5,118C 201.549,116.228 193.549,114.895 185.5,114C 177.515,94.8571 163.182,86.3571 142.5,88.5 Z"/></g>
<g><path style="opacity:0.894" fill="#000000" d="M 410.5,77.5 C 417.615,77.0753 424.615,77.5753 431.5,79C 436.004,84.8132 435.004,89.4798 428.5,93C 422.083,93.8696 415.749,93.5362 409.5,92C 406.606,89.0913 405.773,85.5913 407,81.5C 407.69,79.6498 408.856,78.3164 410.5,77.5 Z"/></g>
<g><path style="opacity:0.938" fill="#000000" d="M 399.5,103.5 C 413.171,103.333 426.837,103.5 440.5,104C 443.573,104.739 445.74,106.572 447,109.5C 447.667,164.5 447.667,219.5 447,274.5C 446.215,276.286 445.049,277.786 443.5,279C 428.167,279.667 412.833,279.667 397.5,279C 395.667,278.5 394.5,277.333 394,275.5C 393.333,219.5 393.333,163.5 394,107.5C 395.5,105.531 397.333,104.198 399.5,103.5 Z M 409.5,119.5 C 409.5,167.5 409.5,215.5 409.5,263.5C 416.833,263.5 424.167,263.5 431.5,263.5C 431.5,215.5 431.5,167.5 431.5,119.5C 424.167,119.5 416.833,119.5 409.5,119.5 Z"/></g>
<g><path style="opacity:0.901" fill="#000000" d="M 336.5,125.5 C 343.947,125.071 351.281,125.571 358.5,127C 360.934,130.716 361.101,134.549 359,138.5C 351.344,142.082 343.511,142.415 335.5,139.5C 331.363,134.516 331.697,129.849 336.5,125.5 Z"/></g>
<g><path style="opacity:0.898" fill="#000000" d="M 146.5,146.5 C 151.844,146.334 157.177,146.501 162.5,147C 166.277,149.955 167.443,153.788 166,158.5C 164.786,160.049 163.286,161.215 161.5,162C 155.719,162.903 150.053,162.57 144.5,161C 140.002,155.32 140.669,150.487 146.5,146.5 Z"/></g>
<g><path style="opacity:0.899" fill="#000000" d="M 265.5,153.5 C 271.593,153.139 277.593,153.639 283.5,155C 288.996,160.149 288.663,164.816 282.5,169C 275.392,169.924 268.392,169.591 261.5,168C 257.437,161.754 258.771,156.921 265.5,153.5 Z"/></g>
<g><path style="opacity:0.939" fill="#000000" d="M 326.5,153.5 C 339.837,153.333 353.171,153.5 366.5,154C 369.767,153.937 371.934,155.437 373,158.5C 373.667,197.5 373.667,236.5 373,275.5C 372.5,277.333 371.333,278.5 369.5,279C 354.167,279.667 338.833,279.667 323.5,279C 321.951,277.786 320.785,276.286 320,274.5C 319.333,235.833 319.333,197.167 320,158.5C 321.563,155.977 323.73,154.31 326.5,153.5 Z M 335.5,169.5 C 335.5,200.833 335.5,232.167 335.5,263.5C 342.833,263.5 350.167,263.5 357.5,263.5C 357.5,232.167 357.5,200.833 357.5,169.5C 350.167,169.5 342.833,169.5 335.5,169.5 Z"/></g>
<g><path style="opacity:0.934" fill="#000000" d="M 252.5,183.5 C 266.171,183.333 279.837,183.5 293.5,184C 295.848,184.346 297.681,185.513 299,187.5C 300.642,216.105 300.975,244.772 300,273.5C 299.654,275.848 298.487,277.681 296.5,279C 280.833,279.667 265.167,279.667 249.5,279C 248.667,278.167 247.833,277.333 247,276.5C 245.358,247.895 245.025,219.228 246,190.5C 247.018,186.985 249.185,184.652 252.5,183.5 Z M 261.5,199.5 C 261.5,220.833 261.5,242.167 261.5,263.5C 269.167,263.5 276.833,263.5 284.5,263.5C 284.5,242.167 284.5,220.833 284.5,199.5C 276.833,199.5 269.167,199.5 261.5,199.5 Z"/></g>
<g><path style="opacity:0.92" fill="#000000" d="M 130.5,208.5 C 143.837,208.333 157.171,208.5 170.5,209C 176.158,210.829 177.992,214.663 176,220.5C 175.5,222.333 174.333,223.5 172.5,224C 157.5,224.667 142.5,224.667 127.5,224C 121.641,217.462 122.641,212.295 130.5,208.5 Z"/></g>
<g><path style="opacity:0.922" fill="#000000" d="M 128.5,234.5 C 149.836,234.333 171.169,234.5 192.5,235C 194.333,235.5 195.5,236.667 196,238.5C 197.724,243.731 196.224,247.565 191.5,250C 170.833,250.667 150.167,250.667 129.5,250C 125.376,249.018 123.376,246.352 123.5,242C 123.831,238.52 125.498,236.02 128.5,234.5 Z"/></g>
<g><path style="opacity:0.926" fill="#000000" d="M 129.5,259.5 C 156.835,259.333 184.169,259.5 211.5,260C 216.738,263.274 217.904,267.774 215,273.5C 214.25,274.126 213.416,274.626 212.5,275C 184.5,275.667 156.5,275.667 128.5,275C 123.248,271.914 122.248,267.747 125.5,262.5C 126.901,261.479 128.235,260.479 129.5,259.5 Z"/></g>
<g><path style="opacity:0.918" fill="#000000" d="M 234.5,359.5 C 248.504,359.333 262.504,359.5 276.5,360C 281.087,362.763 282.254,366.597 280,371.5C 278.681,373.487 276.848,374.654 274.5,375C 261.833,375.667 249.167,375.667 236.5,375C 230.408,372.726 228.574,368.559 231,362.5C 232.145,361.364 233.312,360.364 234.5,359.5 Z"/></g>
<g><path style="opacity:0.904" fill="#000000" d="M 253.5,430.5 C 257.794,430.198 260.961,431.864 263,435.5C 263.667,442.833 263.667,450.167 263,457.5C 260.565,462.224 256.731,463.724 251.5,462C 250.333,460.833 249.167,459.667 248,458.5C 247.333,450.833 247.333,443.167 248,435.5C 249.107,432.887 250.94,431.22 253.5,430.5 Z"/></g>
</svg>
