<svg xmlns="http://www.w3.org/2000/svg" version="1.1" style="shape-rendering:geometricPrecision; text-rendering:geometricPrecision; image-rendering:optimizeQuality; fill-rule:evenodd; clip-rule:evenodd" xmlns:xlink="http://www.w3.org/1999/xlink">
<g><path style="opacity:0.884" d="M 64.5,-0.5 C 67.8333,-0.5 71.1667,-0.5 74.5,-0.5C 84.9363,5.82799 94.4363,13.4947 103,22.5C 109.766,31.0346 114.099,40.7012 116,51.5C 116.971,68.9245 116.638,86.2579 115,103.5C 113.048,105.894 110.548,107.394 107.5,108C 99.5058,109.277 91.5058,110.444 83.5,111.5C 83.3334,140.502 83.5,169.502 84,198.5C 90.0417,204.873 95.7084,211.54 101,218.5C 104.761,228.248 105.428,238.248 103,248.5C 101.306,251.358 99.1393,253.691 96.5,255.5C 78.5,255.5 60.5,255.5 42.5,255.5C 39.8607,253.691 37.6941,251.358 36,248.5C 35.3333,240.167 35.3333,231.833 36,223.5C 36.8061,220.554 38.1395,217.888 40,215.5C 45,209.833 50,204.167 55,198.5C 55.1907,169.47 55.6907,140.47 56.5,111.5C 46.3053,110.634 36.3053,108.801 26.5,106C 24.9512,104.786 23.7845,103.286 23,101.5C 22.3333,95.1667 22.3333,88.8333 23,82.5C 25.3333,79.8333 27.6667,79.8333 30,82.5C 30.2139,87.8854 30.7139,93.2187 31.5,98.5C 39.6469,100.4 47.8136,102.067 56,103.5C 56.4674,86.8949 58.8007,70.5615 63,54.5C 65.3392,49.7435 68.8392,48.5769 73.5,51C 75.317,52.7998 76.4837,54.9664 77,57.5C 80.5096,72.6253 82.5096,87.9586 83,103.5C 91.3677,102.019 99.7011,100.352 108,98.5C 108.667,84.5 108.667,70.5 108,56.5C 106.311,44.7902 101.644,34.4569 94,25.5C 86.7861,19.2846 79.2861,13.4513 71.5,8C 70.1667,7.33333 68.8333,7.33333 67.5,8C 58.2711,14.3555 49.7711,21.5221 42,29.5C 33.6723,41.4653 29.6723,54.7987 30,69.5C 27.9251,71.6483 25.5918,71.9817 23,70.5C 20.5382,47.9359 27.7048,29.1026 44.5,14C 51.3483,9.30348 58.015,4.47015 64.5,-0.5 Z M 68.5,65.5 C 70.045,66.2297 70.8784,67.563 71,69.5C 73.2326,85.7512 74.3993,102.085 74.5,118.5C 71.1667,118.5 67.8333,118.5 64.5,118.5C 64.7852,100.743 66.1185,83.0765 68.5,65.5 Z M 64.5,126.5 C 68.1667,126.5 71.8333,126.5 75.5,126.5C 75.5,149.5 75.5,172.5 75.5,195.5C 71.8333,195.5 68.1667,195.5 64.5,195.5C 64.5,172.5 64.5,149.5 64.5,126.5 Z M 61.5,203.5 C 66.8437,203.334 72.1771,203.501 77.5,204C 82.8813,210.593 88.3813,217.093 94,223.5C 101.133,246.413 92.9666,254.413 69.5,247.5C 61.8333,247.333 54.1667,247.167 46.5,247C 45.6919,246.692 45.0253,246.192 44.5,245.5C 43.374,239.218 43.2073,232.885 44,226.5C 49.6657,218.673 55.499,211.006 61.5,203.5 Z"/></g>
<g><path style="opacity:0.886" d="M 146.5,-0.5 C 149.5,-0.5 152.5,-0.5 155.5,-0.5C 159.675,6.50338 162.175,14.17 163,22.5C 163.333,40.8333 163.667,59.1667 164,77.5C 166.126,79.3766 168.626,80.3766 171.5,80.5C 172.077,62.505 172.577,44.505 173,26.5C 173.602,17.8213 175.602,9.488 179,1.5C 179.995,0.934056 180.828,0.267389 181.5,-0.5C 184.167,-0.5 186.833,-0.5 189.5,-0.5C 191.97,1.08167 193.47,3.41501 194,6.5C 195.976,13.3787 197.309,20.3787 198,27.5C 198.362,45.1744 198.862,62.841 199.5,80.5C 202.374,80.3766 204.874,79.3766 207,77.5C 207.333,59.1667 207.667,40.8333 208,22.5C 208.633,14.1037 211.133,6.43701 215.5,-0.5C 218.5,-0.5 221.5,-0.5 224.5,-0.5C 229.078,6.74106 231.578,14.7411 232,23.5C 232.667,45.5 232.667,67.5 232,89.5C 230.264,96.2366 226.097,100.737 219.5,103C 212.879,104.492 206.213,105.659 199.5,106.5C 199.821,126.213 199.488,145.88 198.5,165.5C 195.612,168.262 193.112,167.929 191,164.5C 190.5,150.837 190.333,137.171 190.5,123.5C 187.167,123.5 183.833,123.5 180.5,123.5C 180.5,147.5 180.5,171.5 180.5,195.5C 183.833,195.5 187.167,195.5 190.5,195.5C 190.334,190.156 190.501,184.823 191,179.5C 193.178,175.935 195.844,175.601 199,178.5C 199.333,185.167 199.667,191.833 200,198.5C 206.815,206.136 213.148,214.136 219,222.5C 219.667,231.167 219.667,239.833 219,248.5C 217.306,251.358 215.139,253.691 212.5,255.5C 194.5,255.5 176.5,255.5 158.5,255.5C 155.861,253.691 153.694,251.358 152,248.5C 151.333,239.833 151.333,231.167 152,222.5C 157.37,213.772 163.703,205.772 171,198.5C 171.5,167.835 171.667,137.168 171.5,106.5C 162.426,105.849 153.759,103.683 145.5,100C 142.509,97.0096 140.343,93.5096 139,89.5C 138.333,67.1667 138.333,44.8333 139,22.5C 139.633,14.1037 142.133,6.43701 146.5,-0.5 Z M 150.5,8.5 C 153.063,14.8004 154.563,21.467 155,28.5C 155.333,45.8333 155.667,63.1667 156,80.5C 156.792,82.5873 157.959,84.4207 159.5,86C 165.054,88.6536 170.721,89.3203 176.5,88C 178.049,86.786 179.215,85.286 180,83.5C 180.286,63.4861 180.953,43.4861 182,23.5C 183.89,5.04321 186.224,5.04321 189,23.5C 189.974,43.4892 190.641,63.4892 191,83.5C 192.463,86.7967 194.963,88.7967 198.5,89.5C 203.858,89.2414 208.691,87.5747 213,84.5C 213.667,83.1667 214.333,81.8333 215,80.5C 215.333,62.8333 215.667,45.1667 216,27.5C 216.694,21.0293 218.027,14.6959 220,8.5C 222.102,15.0103 223.435,21.677 224,28.5C 224.667,47.8333 224.667,67.1667 224,86.5C 222.558,90.2749 220.058,93.1083 216.5,95C 209.439,96.056 202.439,97.3893 195.5,99C 193.951,100.214 192.785,101.714 192,103.5C 191.797,107.421 191.297,111.255 190.5,115C 186.848,115.499 183.182,115.665 179.5,115.5C 179.666,111.486 179.499,107.486 179,103.5C 178.215,101.714 177.049,100.214 175.5,99C 168.561,97.3893 161.561,96.056 154.5,95C 150.915,93.0842 148.415,90.2509 147,86.5C 146.333,66.8333 146.333,47.1667 147,27.5C 147.848,21.0936 149.015,14.7602 150.5,8.5 Z M 177.5,203.5 C 182.844,203.334 188.177,203.501 193.5,204C 198.625,210.793 204.125,217.293 210,223.5C 217.133,246.413 208.967,254.413 185.5,247.5C 162.033,254.413 153.867,246.413 161,223.5C 167.09,217.251 172.59,210.584 177.5,203.5 Z"/></g>
<g><path style="opacity:0.892" d="M 54.5,230.5 C 64.5056,230.334 74.5056,230.5 84.5,231C 85.5914,233.064 85.7581,235.231 85,237.5C 74.9105,238.652 64.7438,238.819 54.5,238C 53.2215,235.502 53.2215,233.002 54.5,230.5 Z"/></g>
<g><path style="opacity:0.892" d="M 170.5,230.5 C 180.506,230.334 190.506,230.5 200.5,231C 201.591,233.064 201.758,235.231 201,237.5C 190.91,238.652 180.744,238.819 170.5,238C 169.221,235.502 169.221,233.002 170.5,230.5 Z"/></g>
</svg>
