<?xml version="1.0" encoding="UTF-8"?>
<!DOCTYPE svg PUBLIC "-//W3C//DTD SVG 1.1//EN" "http://www.w3.org/Graphics/SVG/1.1/DTD/svg11.dtd">
<svg xmlns="http://www.w3.org/2000/svg" version="1.1" width="128px" height="128px" viewBox='0 0 128 128' style="fill-rule:evenodd; clip-rule:evenodd" xmlns:xlink="http://www.w3.org/1999/xlink">
<g><path style="opacity:0.798" fill="#000000" d="M 30.5,-0.5 C 33.1667,-0.5 35.8333,-0.5 38.5,-0.5C 43.7347,3.22653 48.5681,7.55987 53,12.5C 55.4548,16.531 57.1214,20.8644 58,25.5C 58.9424,34.602 58.6091,43.602 57,52.5C 52.0207,54.2845 46.854,55.2845 41.5,55.5C 41.3334,69.8372 41.5001,84.1705 42,98.5C 45,102.167 48,105.833 51,109.5C 51.6667,114.833 51.6667,120.167 51,125.5C 50.2828,126.044 49.7828,126.711 49.5,127.5C 39.5,127.5 29.5,127.5 19.5,127.5C 17.4793,121.71 16.9793,115.71 18,109.5C 21,105.833 24,102.167 27,98.5C 27.4999,84.1705 27.6666,69.8372 27.5,55.5C 22.146,55.2845 16.9793,54.2845 12,52.5C 10.4796,48.6251 10.1462,44.6251 11,40.5C 12.0495,39.4829 13.2161,39.3162 14.5,40C 15.4505,43.0567 15.7839,46.2234 15.5,49.5C 19.5,49.8333 23.5,50.1667 27.5,50.5C 28.0078,42.4121 29.1745,34.4121 31,26.5C 33.3333,23.8333 35.6667,23.8333 38,26.5C 39.8547,34.4034 41.0213,42.4034 41.5,50.5C 45.5,50.1667 49.5,49.8333 53.5,49.5C 58.3072,29.2585 51.9738,13.9252 34.5,3.5C 21.9123,10.0095 15.4123,20.3429 15,34.5C 13.6439,35.3802 12.1439,35.7135 10.5,35.5C 10.1485,28.0899 11.6485,21.0899 15,14.5C 19.4012,8.59698 24.5679,3.59698 30.5,-0.5 Z M 34.5,34.5 C 36.2153,42.2643 36.882,50.2643 36.5,58.5C 35.1667,58.5 33.8333,58.5 32.5,58.5C 32.241,50.3726 32.9077,42.3726 34.5,34.5 Z M 32.5,63.5 C 34.1667,63.5 35.8333,63.5 37.5,63.5C 37.5,74.8333 37.5,86.1667 37.5,97.5C 35.8333,97.5 34.1667,97.5 32.5,97.5C 32.5,86.1667 32.5,74.8333 32.5,63.5 Z M 30.5,101.5 C 33.1873,101.336 35.854,101.503 38.5,102C 41.3333,105.5 44.1667,109 47,112.5C 49.2862,122.375 45.2862,126.042 35,123.5C 31.1667,123.333 27.3333,123.167 23.5,123C 21.4963,120.159 20.9963,116.993 22,113.5C 24.6892,109.325 27.5225,105.325 30.5,101.5 Z"/></g>
<g><path style="opacity:0.793" fill="#000000" d="M 72.5,-0.5 C 74.5,-0.5 76.5,-0.5 78.5,-0.5C 79.7711,2.3429 80.6045,5.3429 81,8.5C 81.3333,18.5 81.6667,28.5 82,38.5C 83.0113,39.3366 84.1779,39.67 85.5,39.5C 85.3336,30.8269 85.5002,22.1603 86,13.5C 86.2362,8.55511 87.4029,3.88844 89.5,-0.5C 91.5,-0.5 93.5,-0.5 95.5,-0.5C 97.5971,3.88844 98.7638,8.55511 99,13.5C 99.4998,22.1603 99.6664,30.8269 99.5,39.5C 100.822,39.67 101.989,39.3366 103,38.5C 103.333,28.1667 103.667,17.8333 104,7.5C 104.542,4.70836 105.376,2.0417 106.5,-0.5C 108.5,-0.5 110.5,-0.5 112.5,-0.5C 114.566,3.20174 115.733,7.20174 116,11.5C 116.667,22.5 116.667,33.5 116,44.5C 115.654,46.8477 114.487,48.6811 112.5,50C 108.651,51.6966 104.651,52.8633 100.5,53.5C 99.5015,63.4778 99.1681,73.4778 99.5,83.5C 97.8561,83.7135 96.3561,83.3802 95,82.5C 94.5004,75.5079 94.3337,68.5079 94.5,61.5C 93.1667,61.5 91.8333,61.5 90.5,61.5C 90.5,73.5 90.5,85.5 90.5,97.5C 91.8333,97.5 93.1667,97.5 94.5,97.5C 94.3359,94.8127 94.5026,92.146 95,89.5C 95.7253,87.842 96.892,87.342 98.5,88C 99.2931,91.4106 99.7931,94.9106 100,98.5C 103,102.167 106,105.833 109,109.5C 109.667,114.833 109.667,120.167 109,125.5C 108.283,126.044 107.783,126.711 107.5,127.5C 97.5,127.5 87.5,127.5 77.5,127.5C 77.2172,126.711 76.7172,126.044 76,125.5C 75.3333,120.167 75.3333,114.833 76,109.5C 79,105.833 82,102.167 85,98.5C 85.8328,83.4889 85.6662,68.4889 84.5,53.5C 80.3488,52.8633 76.3488,51.6966 72.5,50C 70.5125,48.6811 69.3459,46.8477 69,44.5C 68.3333,33.1667 68.3333,21.8333 69,10.5C 69.4092,6.50941 70.5759,2.84274 72.5,-0.5 Z M 74.5,5.5 C 76.1094,8.1489 76.9428,11.1489 77,14.5C 77.3333,23.5 77.6667,32.5 78,41.5C 80.9948,44.2648 84.4948,45.0981 88.5,44C 89.1258,43.2496 89.6258,42.4162 90,41.5C 90.3333,31.5 90.6667,21.5 91,11.5C 92.2859,5.12425 93.2859,5.45758 94,12.5C 94.3333,22.1667 94.6667,31.8333 95,41.5C 95.7579,43.9096 97.4246,44.9096 100,44.5C 102.814,44.5924 105.147,43.5924 107,41.5C 107.333,32.1667 107.667,22.8333 108,13.5C 108.241,10.7111 108.908,8.04439 110,5.5C 111.567,18.4519 111.9,31.4519 111,44.5C 110.097,45.7014 108.931,46.5348 107.5,47C 104.167,47.6667 100.833,48.3333 97.5,49C 95.8787,51.166 95.0454,53.666 95,56.5C 93.3005,57.4061 91.4672,57.7394 89.5,57.5C 89.9804,54.3148 89.3137,51.4815 87.5,49C 84.1667,48.3333 80.8333,47.6667 77.5,47C 76.0692,46.5348 74.9025,45.7014 74,44.5C 73.2655,31.4784 73.4322,18.4784 74.5,5.5 Z M 88.5,101.5 C 91.1873,101.336 93.854,101.503 96.5,102C 97.9578,104.46 99.7911,106.627 102,108.5C 105.847,113.092 106.347,117.925 103.5,123C 96.1667,123.667 88.8333,123.667 81.5,123C 79.4963,120.159 78.9963,116.993 80,113.5C 82.6641,109.343 85.4975,105.343 88.5,101.5 Z"/></g>
<g><path style="opacity:0.705" fill="#000000" d="M 26.5,114.5 C 31.8333,114.5 37.1667,114.5 42.5,114.5C 42.5,116.167 42.5,117.833 42.5,119.5C 37.4889,119.666 32.4889,119.499 27.5,119C 26.6198,117.644 26.2865,116.144 26.5,114.5 Z"/></g>
<g><path style="opacity:0.705" fill="#000000" d="M 84.5,114.5 C 89.8333,114.5 95.1667,114.5 100.5,114.5C 100.714,116.144 100.38,117.644 99.5,119C 94.5111,119.499 89.5111,119.666 84.5,119.5C 84.5,117.833 84.5,116.167 84.5,114.5 Z"/></g>
</svg>
