<svg xmlns="http://www.w3.org/2000/svg" version="1.1" viewBox='0 0 512 512' width="512px" height="512px" style="shape-rendering:geometricPrecision; text-rendering:geometricPrecision; image-rendering:optimizeQuality; fill-rule:evenodd; clip-rule:evenodd" xmlns:xlink="http://www.w3.org/1999/xlink">
<g><path style="opacity:0.938" fill="#000000" d="M 511.5,130.5 C 511.5,135.5 511.5,140.5 511.5,145.5C 507.178,153.346 502.178,160.846 496.5,168C 493.963,169.838 491.129,170.671 488,170.5C 483.257,169.348 478.757,167.848 474.5,166C 470.219,172.615 465.553,178.948 460.5,185C 456.326,187.59 451.826,189.09 447,189.5C 438.804,209.754 430.804,230.088 423,250.5C 420.48,256.225 416.314,258.058 410.5,256C 408.129,254.257 406.795,251.923 406.5,249C 414.869,226.729 423.536,204.562 432.5,182.5C 426.542,176.707 419.876,172.207 412.5,169C 395,185.833 377.5,202.667 360,219.5C 362.907,257.903 366.74,296.236 371.5,334.5C 379.605,315.289 387.438,295.955 395,276.5C 402.309,270.299 407.475,271.799 410.5,281C 398.696,311.413 386.696,341.746 374.5,372C 376.164,385.47 377.664,398.97 379,412.5C 382.842,414.508 386.675,416.675 390.5,419C 392.652,421.469 394.152,424.302 395,427.5C 395.667,437.167 395.667,446.833 395,456.5C 393.983,461.712 391.149,465.545 386.5,468C 289.89,469.659 193.223,469.993 96.5,469C 90.6928,467.193 86.8595,463.36 85,457.5C 84.3333,447.167 84.3333,436.833 85,426.5C 87.4759,419.013 92.6426,415.013 100.5,414.5C 101.737,403.618 103.071,392.785 104.5,382C 45.7267,358.064 10.7267,314.898 -0.5,252.5C -0.5,242.167 -0.5,231.833 -0.5,221.5C 11.5874,165.761 45.9208,142.928 102.5,153C 110.502,154.945 118.169,157.778 125.5,161.5C 126.192,160.975 126.692,160.308 127,159.5C 127.699,153.511 128.199,147.511 128.5,141.5C 121.665,140.167 117.165,136.167 115,129.5C 114.333,119.5 114.333,109.5 115,99.5C 116.833,93 121,88.8333 127.5,87C 155.498,86.5 183.498,86.3334 211.5,86.5C 211.059,73.7586 211.559,61.092 213,48.5C 214.981,45.2553 217.814,43.0886 221.5,42C 233.833,41.3333 246.167,41.3333 258.5,42C 262.186,43.0886 265.019,45.2553 267,48.5C 268.441,61.092 268.941,73.7586 268.5,86.5C 296.502,86.3334 324.502,86.5 352.5,87C 358.667,89.1667 362.833,93.3333 365,99.5C 365.667,109.167 365.667,118.833 365,128.5C 363.24,135.762 358.74,140.095 351.5,141.5C 352.906,160.562 354.906,179.562 357.5,198.5C 372.151,185.016 386.651,171.35 401,157.5C 400.002,151.795 400.336,146.128 402,140.5C 405.972,134.362 410.138,128.362 414.5,122.5C 411.542,120.044 408.709,117.378 406,114.5C 403.774,109.314 404.107,104.314 407,99.5C 411.117,92.4207 416.283,86.2541 422.5,81C 432.607,75.4671 442.607,75.4671 452.5,81C 466.89,91.7222 481.556,102.056 496.5,112C 503.634,116.615 508.634,122.781 511.5,130.5 Z M 227.5,57.5 C 235.833,57.5 244.167,57.5 252.5,57.5C 252.5,87.5 252.5,117.5 252.5,147.5C 244.167,147.5 235.833,147.5 227.5,147.5C 227.5,117.5 227.5,87.5 227.5,57.5 Z M 433.5,93.5 C 437.792,93.0349 441.792,93.8682 445.5,96C 461.947,107.447 478.114,119.28 494,131.5C 496.577,140.037 494.244,147.037 487,152.5C 465.509,137.752 444.175,122.752 423,107.5C 424.767,101.675 428.267,97.0084 433.5,93.5 Z M 131.5,102.5 C 158.167,102.5 184.833,102.5 211.5,102.5C 211.5,110.167 211.5,117.833 211.5,125.5C 184.5,125.5 157.5,125.5 130.5,125.5C 130.201,117.747 130.534,110.08 131.5,102.5 Z M 268.5,102.5 C 295.169,102.333 321.835,102.5 348.5,103C 349.481,110.413 349.814,117.913 349.5,125.5C 322.5,125.5 295.5,125.5 268.5,125.5C 268.5,117.833 268.5,110.167 268.5,102.5 Z M 427.5,131.5 C 438.768,138.92 449.935,146.587 461,154.5C 461.667,155.5 461.667,156.5 461,157.5C 457.5,162.333 454,167.167 450.5,172C 448.711,172.52 447.044,172.187 445.5,171C 436,164.167 426.5,157.333 417,150.5C 416.48,148.711 416.813,147.044 418,145.5C 421.434,140.949 424.601,136.282 427.5,131.5 Z M 144.5,141.5 C 166.833,141.5 189.167,141.5 211.5,141.5C 210.565,148.255 211.898,154.422 215.5,160C 217.275,161.439 219.275,162.439 221.5,163C 233.833,163.667 246.167,163.667 258.5,163C 263.667,161.833 266.833,158.667 268,153.5C 268.499,149.514 268.666,145.514 268.5,141.5C 290.833,141.5 313.167,141.5 335.5,141.5C 336.947,159.853 338.613,178.186 340.5,196.5C 273.5,196.5 206.5,196.5 139.5,196.5C 141.365,178.185 143.031,159.852 144.5,141.5 Z M 67.5,166.5 C 87.3984,164.808 106.065,168.808 123.5,178.5C 124.295,186.866 123.795,195.2 122,203.5C 106.842,192.78 90.0088,187.947 71.5,189C 50.6693,193.761 39.5027,206.928 38,228.5C 38.894,280.646 62.394,318.646 108.5,342.5C 107.405,349.447 106.572,356.447 106,363.5C 105.586,363.957 105.086,364.291 104.5,364.5C 57.6096,343.433 28.443,307.766 17,257.5C 13.166,236.717 15.4993,216.717 24,197.5C 33.9609,180.619 48.4609,170.286 67.5,166.5 Z M 73.5,204.5 C 91.3572,204.516 106.857,210.516 120,222.5C 117.097,256.527 113.597,290.527 109.5,324.5C 76.1211,304.917 57.4544,275.75 53.5,237C 53.0197,226.227 56.353,216.894 63.5,209C 66.8153,207.17 70.1486,205.67 73.5,204.5 Z M 137.5,212.5 C 205.833,212.5 274.167,212.5 342.5,212.5C 347.5,262.5 352.5,312.5 357.5,362.5C 279.167,362.5 200.833,362.5 122.5,362.5C 127.368,312.487 132.368,262.487 137.5,212.5 Z M 120.5,377.5 C 200.167,377.5 279.833,377.5 359.5,377.5C 360.343,389.765 361.676,401.932 363.5,414C 326.833,414.333 290.167,414.667 253.5,415C 246.846,420.4 247.18,425.4 254.5,430C 296.165,430.5 337.832,430.667 379.5,430.5C 379.5,438.167 379.5,445.833 379.5,453.5C 286.5,453.5 193.5,453.5 100.5,453.5C 100.5,445.833 100.5,438.167 100.5,430.5C 141.168,430.667 181.835,430.5 222.5,430C 228.123,427.475 229.623,423.308 227,417.5C 226.097,416.299 224.931,415.465 223.5,415C 187.833,414.667 152.167,414.333 116.5,414C 118.192,401.917 119.525,389.751 120.5,377.5 Z"/></g>
</svg>
