<svg xmlns="http://www.w3.org/2000/svg" version="1.1" style="shape-rendering:geometricPrecision; text-rendering:geometricPrecision; image-rendering:optimizeQuality; fill-rule:evenodd; clip-rule:evenodd" xmlns:xlink="http://www.w3.org/1999/xlink">
<g><path style="opacity:0.882" d="M 255.5,118.5 C 255.5,126.5 255.5,134.5 255.5,142.5C 253.846,145.666 251.179,147.333 247.5,147.5C 247.5,152.167 247.5,156.833 247.5,161.5C 250.84,162.166 253.507,163.833 255.5,166.5C 255.5,174.833 255.5,183.167 255.5,191.5C 253.405,193.759 250.905,195.426 248,196.5C 247.333,200.833 247.333,205.167 248,209.5C 250.905,210.574 253.405,212.241 255.5,214.5C 255.5,222.833 255.5,231.167 255.5,239.5C 254.354,241.475 252.687,242.975 250.5,244C 226.833,244.667 203.167,244.667 179.5,244C 177.352,241.925 177.018,239.592 178.5,237C 201.167,236.667 223.833,236.333 246.5,236C 247.475,230.259 247.808,224.425 247.5,218.5C 167.5,218.5 87.5,218.5 7.5,218.5C 7.19177,224.425 7.5251,230.259 8.5,236C 62.1667,236.333 115.833,236.667 169.5,237C 170.982,239.592 170.648,241.925 168.5,244C 113.833,244.667 59.1667,244.667 4.5,244C 2.31305,242.975 0.646381,241.475 -0.5,239.5C -0.5,231.167 -0.5,222.833 -0.5,214.5C 1.59497,212.241 4.09497,210.574 7,209.5C 7.66667,205.167 7.66667,200.833 7,196.5C 4.09497,195.426 1.59497,193.759 -0.5,191.5C -0.5,183.167 -0.5,174.833 -0.5,166.5C 1.15398,163.334 3.82065,161.667 7.5,161.5C 7.5,156.833 7.5,152.167 7.5,147.5C 3.82065,147.333 1.15398,145.666 -0.5,142.5C -0.5,134.5 -0.5,126.5 -0.5,118.5C 0.646381,116.525 2.31305,115.025 4.5,114C 9.08529,112.775 13.752,112.275 18.5,112.5C 16.6095,104.769 15.2762,96.9357 14.5,89C 14.2703,84.3618 15.2703,80.0285 17.5,76C 11.3124,69.1201 9.47907,61.2868 12,52.5C 14.0165,50.316 16.1831,48.316 18.5,46.5C 13.8281,38.6867 14.8281,31.8533 21.5,26C 23.8098,25.5034 26.1432,25.3367 28.5,25.5C 30.5774,10.3769 38.0774,6.71026 51,14.5C 52.9398,17.9276 54.1065,21.5942 54.5,25.5C 61.3928,24.8657 65.8928,27.8657 68,34.5C 87.7233,16.422 110.223,11.922 135.5,21C 154.439,30.6198 165.773,45.9531 169.5,67C 172.469,71.6771 174.969,71.5105 177,66.5C 178.669,61.1553 180.335,55.8219 182,50.5C 184.333,47.8333 186.667,47.8333 189,50.5C 188.991,59.8682 186.491,68.5349 181.5,76.5C 190.235,86.8637 193.568,98.6971 191.5,112C 206.163,112.5 220.83,112.667 235.5,112.5C 235.982,109.698 236.316,106.865 236.5,104C 235.24,96.3652 234.24,88.6986 233.5,81C 233.776,75.2873 234.443,69.6206 235.5,64C 234.634,52.4233 228.801,44.5899 218,40.5C 218.565,46.9499 215.899,49.2832 210,47.5C 208.405,45.5752 208.238,43.5752 209.5,41.5C 208.667,41.1667 207.833,40.8333 207,40.5C 202.138,41.432 197.805,43.432 194,46.5C 188.619,44.2489 188.119,41.0822 192.5,37C 197.633,33.4677 203.3,31.6344 209.5,31.5C 208.875,26.7924 207.542,22.2924 205.5,18C 207.326,12.6723 210.16,12.1723 214,16.5C 216.699,21.4969 218.199,26.8302 218.5,32.5C 234.575,36.5767 242.909,46.91 243.5,63.5C 243.395,69.235 242.728,74.9017 241.5,80.5C 243.877,91.1295 245.211,101.796 245.5,112.5C 249.856,113.003 253.189,115.003 255.5,118.5 Z M 40.5,18.5 C 42.0898,18.6282 43.4231,19.2949 44.5,20.5C 45.1485,24.5833 46.4818,28.4167 48.5,32C 51.6386,33.0175 54.8052,33.8508 58,34.5C 56.7168,40.0464 56.0501,45.7131 56,51.5C 57.9812,53.6575 60.3145,55.3241 63,56.5C 63.8046,60.909 62.8046,64.909 60,68.5C 47.6277,59.1736 35.2944,59.1736 23,68.5C 20.1539,64.9616 19.1539,60.9616 20,56.5C 24.3406,55.1666 26.8406,52.3333 27.5,48C 26.7327,44.1311 25.3993,40.4645 23.5,37C 24.1667,36 24.8333,35 25.5,34C 28.9029,33.8996 32.0696,33.0663 35,31.5C 36.308,28.2698 37.308,24.9364 38,21.5C 38.6979,20.3094 39.5313,19.3094 40.5,18.5 Z M 107.5,24.5 C 108.873,24.3433 110.207,24.51 111.5,25C 98.2505,35.9302 88.4171,49.4302 82,65.5C 75.6576,79.869 71.6576,94.869 70,110.5C 68.5822,112.363 66.7489,112.863 64.5,112C 66.5297,104.323 67.863,96.4893 68.5,88.5C 68.6244,84.0446 67.6244,79.8779 65.5,76C 71.5181,69.0969 73.3515,61.2636 71,52.5C 69.647,51.3147 68.4803,49.9814 67.5,48.5C 77.5966,35.0632 90.9299,27.0632 107.5,24.5 Z M 124.5,27.5 C 129.534,27.4394 133.034,29.7727 135,34.5C 137.053,40.6941 137.719,47.0274 137,53.5C 131.653,50.2055 125.819,48.8722 119.5,49.5C 103.534,47.4453 98.701,53.7786 105,68.5C 107.179,74.1682 110.346,79.1682 114.5,83.5C 109.188,92.4235 107.188,102.09 108.5,112.5C 98.5,112.5 88.5,112.5 78.5,112.5C 81.2512,84.6783 91.4179,60.0116 109,38.5C 113.536,33.775 118.702,30.1083 124.5,27.5 Z M 145.5,39.5 C 153.005,46.1697 157.671,54.503 159.5,64.5C 155.528,63.8918 151.528,63.3918 147.5,63C 147,62.5 146.5,62 146,61.5C 145.5,54.1742 145.334,46.8409 145.5,39.5 Z M 115.5,57.5 C 131.047,56.3804 140.714,63.3804 144.5,78.5C 132.586,84.0466 122.753,81.0466 115,69.5C 113.326,65.9793 112.16,62.3127 111.5,58.5C 113.099,58.7678 114.432,58.4345 115.5,57.5 Z M 35.5,70.5 C 49.4414,68.7812 57.7747,74.7812 60.5,88.5C 58.7803,96.4324 57.447,104.432 56.5,112.5C 46.8104,112.832 37.1437,112.498 27.5,111.5C 26.5,107.5 25.5,103.5 24.5,99.5C 27.4465,98.6786 30.4465,98.1786 33.5,98C 36.9166,95.679 37.2499,93.0124 34.5,90C 30.5138,89.5012 26.5138,89.3345 22.5,89.5C 23.3145,80.697 27.6479,74.3636 35.5,70.5 Z M 151.5,73.5 C 157.902,72.433 163.902,73.933 169.5,78C 180.666,86.8358 185.333,98.3358 183.5,112.5C 161.5,112.5 139.5,112.5 117.5,112.5C 115.705,103.473 117.372,95.1397 122.5,87.5C 131.766,91.228 141.099,91.3947 150.5,88C 152.919,86.3144 153.919,83.981 153.5,81C 153.592,78.1789 152.926,75.6789 151.5,73.5 Z M 7.5,121.5 C 87.5,121.5 167.5,121.5 247.5,121.5C 247.808,127.425 247.475,133.259 246.5,139C 167.167,139.667 87.8333,139.667 8.5,139C 7.5251,133.259 7.19177,127.425 7.5,121.5 Z M 15.5,147.5 C 90.1667,147.5 164.833,147.5 239.5,147.5C 239.5,152.167 239.5,156.833 239.5,161.5C 181.832,161.333 124.166,161.5 66.5,162C 63.8333,164.333 63.8333,166.667 66.5,169C 126.5,169.333 186.5,169.667 246.5,170C 247.475,175.741 247.808,181.575 247.5,187.5C 167.5,187.5 87.5,187.5 7.5,187.5C 7.19177,181.575 7.5251,175.741 8.5,170C 24.5,169.667 40.5,169.333 56.5,169C 58.9938,166.756 58.9938,164.423 56.5,162C 42.8374,161.5 29.1707,161.333 15.5,161.5C 15.5,156.833 15.5,152.167 15.5,147.5 Z M 15.5,196.5 C 90.1667,196.5 164.833,196.5 239.5,196.5C 239.5,200.833 239.5,205.167 239.5,209.5C 164.833,209.5 90.1667,209.5 15.5,209.5C 15.5,205.167 15.5,200.833 15.5,196.5 Z"/></g>
<g><path style="opacity:0.763" d="M 20.5,126.5 C 26.6406,126.305 28.3073,128.805 25.5,134C 18.745,134.756 17.0783,132.256 20.5,126.5 Z"/></g>
<g><path style="opacity:0.764" d="M 230.5,126.5 C 237.145,125.977 238.811,128.477 235.5,134C 229.593,134.746 227.927,132.246 230.5,126.5 Z"/></g>
<g><path style="opacity:0.751" d="M 20.5,174.5 C 24.1632,173.995 26.4965,175.495 27.5,179C 25.1246,183.826 22.2913,184.326 19,180.5C 18.2516,178.16 18.7516,176.16 20.5,174.5 Z"/></g>
<g><path style="opacity:0.764" d="M 231.5,174.5 C 236.494,174.329 238.328,176.662 237,181.5C 233.352,184.263 230.852,183.43 229.5,179C 229.519,177.167 230.185,175.667 231.5,174.5 Z"/></g>
<g><path style="opacity:0.751" d="M 22.5,222.5 C 29.0832,225.565 29.0832,228.565 22.5,231.5C 18.6491,230.452 17.6491,228.119 19.5,224.5C 20.6016,223.824 21.6016,223.158 22.5,222.5 Z"/></g>
<g><path style="opacity:0.764" d="M 232.5,222.5 C 237.012,222.862 238.512,225.195 237,229.5C 233.187,232.589 230.687,231.755 229.5,227C 229.557,224.791 230.557,223.291 232.5,222.5 Z"/></g>
</svg>
