<svg xmlns="http://www.w3.org/2000/svg" version="1.1" style="shape-rendering:geometricPrecision; text-rendering:geometricPrecision; image-rendering:optimizeQuality; fill-rule:evenodd; clip-rule:evenodd" xmlns:xlink="http://www.w3.org/1999/xlink">
<g><path style="opacity:0.934" d="M 511.5,225.5 C 511.5,228.833 511.5,232.167 511.5,235.5C 504.118,243.385 496.451,251.218 488.5,259C 485.938,260.141 483.272,260.974 480.5,261.5C 478.147,260.649 475.813,260.149 473.5,260C 430.632,305.866 388.132,352.033 346,398.5C 346.761,416.662 347.928,434.828 349.5,453C 349.962,460.748 346.629,466.082 339.5,469C 315.833,469.667 292.167,469.667 268.5,469C 264.247,465.58 263.413,461.413 266,456.5C 267.171,455.107 268.671,454.273 270.5,454C 291.497,453.5 312.497,453.333 333.5,453.5C 327.216,368.191 321.216,282.857 315.5,197.5C 292.167,197.5 268.833,197.5 245.5,197.5C 245.5,221.167 245.5,244.833 245.5,268.5C 251.97,269.465 256.136,273.132 258,279.5C 257.286,304.38 244.453,317.047 219.5,317.5C 196.124,317.46 183.124,305.793 180.5,282.5C 181.656,273.676 186.656,269.01 195.5,268.5C 195.5,244.833 195.5,221.167 195.5,197.5C 172.103,196.85 148.937,197.516 126,199.5C 120.116,283.882 113.949,368.215 107.5,452.5C 153.163,453.333 198.83,453.833 244.5,454C 251.04,457.491 252.04,462.158 247.5,468C 223.085,469.158 198.585,469.658 174,469.5C 149.106,469.653 124.273,469.153 99.5,468C 94.5273,464.729 91.8606,460.062 91.5,454C 93.9044,430.181 95.2378,406.348 95.5,382.5C 71.9112,372.039 48.9112,360.539 26.5,348C 12.4714,336.091 3.47143,321.258 -0.5,303.5C -0.5,295.5 -0.5,287.5 -0.5,279.5C 5.74516,252.41 21.9118,233.743 48,223.5C 52.7001,221.783 57.5334,220.617 62.5,220C 77.8297,219.5 93.163,219.333 108.5,219.5C 108.862,212.256 109.528,205.09 110.5,198C 105.57,198.045 100.903,197.045 96.5,195C 94.9588,193.421 93.7922,191.587 93,189.5C 92.0716,178.76 92.4049,168.093 94,157.5C 95.9605,154.865 98.4605,153.031 101.5,152C 116.833,151.333 132.167,151.333 147.5,152C 151.624,152.982 153.624,155.648 153.5,160C 153.302,163.401 151.635,165.734 148.5,167C 135.171,167.5 121.837,167.667 108.5,167.5C 108.5,172.167 108.5,176.833 108.5,181.5C 137.5,181.5 166.5,181.5 195.5,181.5C 195.5,176.833 195.5,172.167 195.5,167.5C 187.493,167.666 179.493,167.5 171.5,167C 167.247,163.58 166.413,159.413 169,154.5C 170.171,153.107 171.671,152.273 173.5,152C 180.826,151.5 188.159,151.334 195.5,151.5C 195.037,119.459 195.537,87.4586 197,55.5C 201.44,44.9407 209.44,40.274 221,41.5C 233.722,40.5614 241.722,46.2281 245,58.5C 245.5,89.4982 245.667,120.498 245.5,151.5C 277.896,151.022 310.229,151.522 342.5,153C 345.381,154.251 347.214,156.417 348,159.5C 348.931,170.573 348.597,181.573 347,192.5C 342.779,196.923 337.613,198.59 331.5,197.5C 333.81,233.842 336.31,270.175 339,306.5C 339.308,307.308 339.808,307.975 340.5,308.5C 372.167,279.833 403.833,251.167 435.5,222.5C 432.443,218.064 431.943,213.397 434,208.5C 441.81,200.358 449.977,192.524 458.5,185C 463.44,183.959 468.106,184.626 472.5,187C 485.422,200.09 498.422,212.923 511.5,225.5 Z M 214.5,57.5 C 218.514,57.3345 222.514,57.5012 226.5,58C 227.333,58.8333 228.167,59.6667 229,60.5C 229.5,129.833 229.667,199.166 229.5,268.5C 223.5,268.5 217.5,268.5 211.5,268.5C 211.333,199.499 211.5,130.499 212,61.5C 212.662,60.0161 213.496,58.6828 214.5,57.5 Z M 245.5,167.5 C 274.5,167.5 303.5,167.5 332.5,167.5C 332.5,172.167 332.5,176.833 332.5,181.5C 303.5,181.5 274.5,181.5 245.5,181.5C 245.5,176.833 245.5,172.167 245.5,167.5 Z M 463.5,201.5 C 473.506,211.173 483.506,220.839 493.5,230.5C 489.515,234.985 485.349,239.318 481,243.5C 470.682,234.349 460.849,224.682 451.5,214.5C 455.522,210.146 459.522,205.813 463.5,201.5 Z M 446.5,234.5 C 451.441,238.265 456.274,242.265 461,246.5C 461.315,247.908 460.982,249.241 460,250.5C 421.333,292.5 382.667,334.5 344,376.5C 343.046,361.644 341.879,346.811 340.5,332C 340.833,331.167 341.167,330.333 341.5,329.5C 376.845,298.152 411.845,266.486 446.5,234.5 Z M 64.5,235.5 C 78.8333,235.5 93.1667,235.5 107.5,235.5C 106.92,239.81 106.586,244.143 106.5,248.5C 92.8293,248.333 79.1626,248.5 65.5,249C 36.9039,256.667 25.4039,275.167 31,304.5C 35.0114,315.707 42.1781,324.207 52.5,330C 68.2519,337.14 83.9185,344.473 99.5,352C 98.8591,356.452 98.1924,360.952 97.5,365.5C 77.1605,356.333 57.1605,346.499 37.5,336C 13.3286,314.8 8.82857,289.967 24,261.5C 34.1145,247.371 47.6145,238.704 64.5,235.5 Z M 67.5,264.5 C 80.1667,264.5 92.8333,264.5 105.5,264.5C 103.715,287.826 101.881,311.16 100,334.5C 85.9098,327.538 71.7431,320.705 57.5,314C 44.8953,304.228 42.0619,292.061 49,277.5C 53.6892,270.964 59.8559,266.631 67.5,264.5 Z M 197.5,284.5 C 212.504,284.333 227.504,284.5 242.5,285C 237.202,299.486 226.868,304.82 211.5,301C 203.203,298.568 198.536,293.068 197.5,284.5 Z M 193.5,381.5 C 211.5,381.5 229.5,381.5 247.5,381.5C 247.5,388.833 247.5,396.167 247.5,403.5C 229.5,403.5 211.5,403.5 193.5,403.5C 193.5,396.167 193.5,388.833 193.5,381.5 Z"/></g>
<g><path style="opacity:0.934" d="M 187.5,365.5 C 209.503,365.333 231.503,365.5 253.5,366C 258.235,367.068 261.402,369.901 263,374.5C 263.942,387.57 263.609,400.57 262,413.5C 260.039,416.135 257.539,417.969 254.5,419C 231.833,419.667 209.167,419.667 186.5,419C 181.901,417.402 179.068,414.235 178,409.5C 177.333,398.167 177.333,386.833 178,375.5C 179.35,370.319 182.517,366.986 187.5,365.5 Z M 193.5,381.5 C 193.5,388.833 193.5,396.167 193.5,403.5C 211.5,403.5 229.5,403.5 247.5,403.5C 247.5,396.167 247.5,388.833 247.5,381.5C 229.5,381.5 211.5,381.5 193.5,381.5 Z"/></g>
</svg>
